<?xml version="1.0" encoding="UTF-8" standalone="no"?><svg xmlns="http://www.w3.org/2000/svg" xmlns:xlink="http://www.w3.org/1999/xlink" contentStyleType="text/css" height="672px" preserveAspectRatio="none" style="width:288px;height:672px;background:#FFFFFF;" version="1.1" viewBox="0 0 288 672" width="288px" zoomAndPan="magnify"><defs/><g><!--MD5=[13c7745981a6abb6004f7738a8ca5078]
entity 1--><g id="elem_1"><rect fill="#F1F1F1" height="36.2969" rx="2.5" ry="2.5" style="stroke:#181818;stroke-width:0.5;" width="110" x="89.5" y="7"/><text fill="#000000" font-family="sans-serif" font-size="14" lengthAdjust="spacing" textLength="90" x="99.5" y="29.9951">Fanin/Fanout</text></g><g id="elem_2"><ellipse cx="105.3848" cy="117.5236" fill="#F1F1F1" rx="21.3848" ry="14.5236" style="stroke:#181818;stroke-width:0.5;"/><text fill="#000000" font-family="sans-serif" font-size="14" lengthAdjust="spacing" textLength="14" x="98.3848" y="120.3703">t1</text></g><g id="elem_4"><ellipse cx="144.3848" cy="206.5236" fill="#F1F1F1" rx="21.3848" ry="14.5236" style="stroke:#181818;stroke-width:0.5;"/><text fill="#000000" font-family="sans-serif" font-size="14" lengthAdjust="spacing" textLength="14" x="137.3848" y="209.3703">t3</text></g><g id="elem_5"><ellipse cx="27.3848" cy="295.5236" fill="#F1F1F1" rx="21.3848" ry="14.5236" style="stroke:#181818;stroke-width:0.5;"/><text fill="#000000" font-family="sans-serif" font-size="14" lengthAdjust="spacing" textLength="14" x="20.3848" y="298.3703">t4</text></g><g id="elem_9"><ellipse cx="144.3848" cy="384.5236" fill="#F1F1F1" rx="21.3848" ry="14.5236" style="stroke:#181818;stroke-width:0.5;"/><text fill="#000000" font-family="sans-serif" font-size="14" lengthAdjust="spacing" textLength="14" x="137.3848" y="387.3703">t8</text></g><g id="elem_10"><ellipse cx="144.3848" cy="473.5236" fill="#F1F1F1" rx="21.3848" ry="14.5236" style="stroke:#181818;stroke-width:0.5;"/><text fill="#000000" font-family="sans-serif" font-size="14" lengthAdjust="spacing" textLength="14" x="137.3848" y="476.3703">t9</text></g><g id="elem_11"><ellipse cx="99.7487" cy="562.5236" fill="#F1F1F1" rx="27.7487" ry="14.5236" style="stroke:#181818;stroke-width:0.5;"/><text fill="#000000" font-family="sans-serif" font-size="14" lengthAdjust="spacing" textLength="23" x="88.2487" y="565.3703">t10</text></g><g id="elem_13"><ellipse cx="144.5772" cy="651.5236" fill="#F1F1F1" rx="30.5772" ry="14.5236" style="stroke:#181818;stroke-width:0.5;"/><text fill="#000000" font-family="sans-serif" font-size="14" lengthAdjust="spacing" textLength="27" x="131.0772" y="654.3703">end</text></g><g id="elem_12"><ellipse cx="189.7487" cy="562.5236" fill="#F1F1F1" rx="27.7487" ry="14.5236" style="stroke:#181818;stroke-width:0.5;"/><text fill="#000000" font-family="sans-serif" font-size="14" lengthAdjust="spacing" textLength="23" x="178.2487" y="565.3703">t11</text></g><g id="elem_6"><ellipse cx="105.3848" cy="295.5236" fill="#F1F1F1" rx="21.3848" ry="14.5236" style="stroke:#181818;stroke-width:0.5;"/><text fill="#000000" font-family="sans-serif" font-size="14" lengthAdjust="spacing" textLength="14" x="98.3848" y="298.3703">t5</text></g><g id="elem_7"><ellipse cx="183.3848" cy="295.5236" fill="#F1F1F1" rx="21.3848" ry="14.5236" style="stroke:#181818;stroke-width:0.5;"/><text fill="#000000" font-family="sans-serif" font-size="14" lengthAdjust="spacing" textLength="14" x="176.3848" y="298.3703">t6</text></g><g id="elem_8"><ellipse cx="261.3848" cy="295.5236" fill="#F1F1F1" rx="21.3848" ry="14.5236" style="stroke:#181818;stroke-width:0.5;"/><text fill="#000000" font-family="sans-serif" font-size="14" lengthAdjust="spacing" textLength="14" x="254.3848" y="298.3703">t7</text></g><g id="elem_3"><ellipse cx="183.3848" cy="117.5236" fill="#F1F1F1" rx="21.3848" ry="14.5236" style="stroke:#181818;stroke-width:0.5;"/><text fill="#000000" font-family="sans-serif" font-size="14" lengthAdjust="spacing" textLength="14" x="176.3848" y="120.3703">t2</text></g><!--MD5=[0ba0d8a0fd0e641c23f69743a446dfe6]
link 1 to 2--><g id="link_1_2"><path d="M137.16,43.02 C130.33,58.89 120.16,82.47 113.21,98.62 " fill="none" id="1-to-2" style="stroke:#181818;stroke-width:1.0;"/><polygon fill="#181818" points="111.16,103.37,118.4069,96.7005,113.1468,98.7817,111.0657,93.5216,111.16,103.37" style="stroke:#181818;stroke-width:1.0;"/></g><!--MD5=[d209f2622dd5d3103b9c9b4670e2d6db]
link 2 to 4--><g id="link_2_4"><path d="M111.42,131.71 C118.1,146.62 129.01,170.94 136.46,187.56 " fill="none" id="2-to-4" style="stroke:#181818;stroke-width:1.0;"/><polygon fill="#181818" points="138.65,192.45,138.6185,182.6012,136.6047,187.8875,131.3185,185.8736,138.65,192.45" style="stroke:#181818;stroke-width:1.0;"/></g><!--MD5=[fb7a877824a531edc27ce1774c90edf7]
link 4 to 5--><g id="link_4_5"><path d="M130.62,217.82 C109.42,233.58 68.98,263.66 45.53,281.09 " fill="none" id="4-to-5" style="stroke:#181818;stroke-width:1.0;"/><polygon fill="#181818" points="41.36,284.19,50.9687,282.0284,45.372,281.206,46.1943,275.6093,41.36,284.19" style="stroke:#181818;stroke-width:1.0;"/></g><!--MD5=[85d7481caa8a5b47e793dfeca865a36a]
link 5 to 9--><g id="link_5_9"><path d="M41.38,306.82 C62.58,322.58 103.02,352.66 126.47,370.09 " fill="none" id="5-to-9" style="stroke:#181818;stroke-width:1.0;"/><polygon fill="#181818" points="130.64,373.19,125.8057,364.6093,126.628,370.206,121.0313,371.0284,130.64,373.19" style="stroke:#181818;stroke-width:1.0;"/></g><!--MD5=[d626a4137f042c9ed96693ba98ea08de]
link 9 to 10--><g id="link_9_10"><path d="M144.5,399.09 C144.5,413.69 144.5,437 144.5,453.43 " fill="none" id="9-to-10" style="stroke:#181818;stroke-width:1.0;"/><polygon fill="#181818" points="144.5,458.71,148.5,449.71,144.5,453.71,140.5,449.71,144.5,458.71" style="stroke:#181818;stroke-width:1.0;"/></g><!--MD5=[ec143eb54b8ec3c64add95129ee53470]
link 10 to 11--><g id="link_10_11"><path d="M137.86,487.34 C130.13,502.29 117.31,527.06 108.64,543.83 " fill="none" id="10-to-11" style="stroke:#181818;stroke-width:1.0;"/><polygon fill="#181818" points="106.31,548.32,113.9998,542.1664,108.6087,543.8797,106.8954,538.4886,106.31,548.32" style="stroke:#181818;stroke-width:1.0;"/></g><!--MD5=[d02bcbcba2354bb1497a02b08e469c63]
link 11 to 13--><g id="link_11_13"><path d="M106.33,576.71 C114.07,591.66 126.7,616.08 135.29,632.7 " fill="none" id="11-to-13" style="stroke:#181818;stroke-width:1.0;"/><polygon fill="#181818" points="137.6,637.16,137.0146,627.3286,135.3013,632.7197,129.9102,631.0064,137.6,637.16" style="stroke:#181818;stroke-width:1.0;"/></g><!--MD5=[4b0e3c1943dfaba6181ce791d43c94cd]
link 10 to 12--><g id="link_10_12"><path d="M151.14,487.34 C158.87,502.29 171.69,527.06 180.36,543.83 " fill="none" id="10-to-12" style="stroke:#181818;stroke-width:1.0;"/><polygon fill="#181818" points="182.69,548.32,182.1046,538.4886,180.3913,543.8797,175.0002,542.1664,182.69,548.32" style="stroke:#181818;stroke-width:1.0;"/></g><!--MD5=[5cad5af0897dff878c8b6da08fd225e3]
link 12 to 13--><g id="link_12_13"><path d="M182.67,576.71 C174.93,591.66 162.3,616.08 153.71,632.7 " fill="none" id="12-to-13" style="stroke:#181818;stroke-width:1.0;"/><polygon fill="#181818" points="151.4,637.16,159.0898,631.0064,153.6987,632.7197,151.9854,627.3286,151.4,637.16" style="stroke:#181818;stroke-width:1.0;"/></g><!--MD5=[f13c3ab577a688343a149026a232f91b]
link 4 to 6--><g id="link_4_6"><path d="M138.58,220.71 C131.9,235.62 120.99,259.94 113.54,276.56 " fill="none" id="4-to-6" style="stroke:#181818;stroke-width:1.0;"/><polygon fill="#181818" points="111.35,281.45,118.6815,274.8736,113.3953,276.8875,111.3815,271.6012,111.35,281.45" style="stroke:#181818;stroke-width:1.0;"/></g><!--MD5=[37c777aaa62e4c2e597ce83ef1b29a01]
link 6 to 9--><g id="link_6_9"><path d="M111.42,309.71 C118.1,324.62 129.01,348.94 136.46,365.56 " fill="none" id="6-to-9" style="stroke:#181818;stroke-width:1.0;"/><polygon fill="#181818" points="138.65,370.45,138.6185,360.6012,136.6047,365.8875,131.3185,363.8736,138.65,370.45" style="stroke:#181818;stroke-width:1.0;"/></g><!--MD5=[ff511f2c31967ac3e2693b12dc1d19ba]
link 4 to 7--><g id="link_4_7"><path d="M150.42,220.71 C157.1,235.62 168.01,259.94 175.46,276.56 " fill="none" id="4-to-7" style="stroke:#181818;stroke-width:1.0;"/><polygon fill="#181818" points="177.65,281.45,177.6185,271.6012,175.6047,276.8875,170.3185,274.8736,177.65,281.45" style="stroke:#181818;stroke-width:1.0;"/></g><!--MD5=[f702a6f74dbfc96c437701ffeb2365dd]
link 7 to 9--><g id="link_7_9"><path d="M177.58,309.71 C170.9,324.62 159.99,348.94 152.54,365.56 " fill="none" id="7-to-9" style="stroke:#181818;stroke-width:1.0;"/><polygon fill="#181818" points="150.35,370.45,157.6815,363.8736,152.3953,365.8875,150.3815,360.6012,150.35,370.45" style="stroke:#181818;stroke-width:1.0;"/></g><!--MD5=[03acbef132c37eb9fe912003727d4827]
link 4 to 8--><g id="link_4_8"><path d="M158.38,217.82 C179.58,233.58 220.02,263.66 243.47,281.09 " fill="none" id="4-to-8" style="stroke:#181818;stroke-width:1.0;"/><polygon fill="#181818" points="247.64,284.19,242.8057,275.6093,243.628,281.206,238.0313,282.0284,247.64,284.19" style="stroke:#181818;stroke-width:1.0;"/></g><!--MD5=[94d95a63a3bd8ceda79afabb6559f4c9]
link 8 to 9--><g id="link_8_9"><path d="M247.62,306.82 C226.42,322.58 185.98,352.66 162.53,370.09 " fill="none" id="8-to-9" style="stroke:#181818;stroke-width:1.0;"/><polygon fill="#181818" points="158.36,373.19,167.9687,371.0284,162.372,370.206,163.1943,364.6093,158.36,373.19" style="stroke:#181818;stroke-width:1.0;"/></g><!--MD5=[2d4b753efd65b00afdf467246674cbe5]
link 1 to 3--><g id="link_1_3"><path d="M151.84,43.02 C158.67,58.89 168.84,82.47 175.79,98.62 " fill="none" id="1-to-3" style="stroke:#181818;stroke-width:1.0;"/><polygon fill="#181818" points="177.84,103.37,177.9343,93.5216,175.8532,98.7817,170.5931,96.7005,177.84,103.37" style="stroke:#181818;stroke-width:1.0;"/></g><!--MD5=[b1f22f0c97e7f2b556a5a2d67c42ac53]
link 3 to 4--><g id="link_3_4"><path d="M177.58,131.71 C170.9,146.62 159.99,170.94 152.54,187.56 " fill="none" id="3-to-4" style="stroke:#181818;stroke-width:1.0;"/><polygon fill="#181818" points="150.35,192.45,157.6815,185.8736,152.3953,187.8875,150.3815,182.6012,150.35,192.45" style="stroke:#181818;stroke-width:1.0;"/></g><!--MD5=[33c4e5a4c98a67d847ebec99d3adfc9d]
@startuml
rectangle "Fanin/Fanout" as 1
usecase "t1" as 2
usecase "t3" as 4
usecase "t4" as 5
usecase "t8" as 9
usecase "t9" as 10
usecase "t10" as 11
usecase "end" as 13
usecase "t11" as 12
usecase "t5" as 6
usecase "t6" as 7
usecase "t7" as 8
usecase "t2" as 3

1 - -> 2
2 - -> 4
4 - -> 5
5 - -> 9
9 - -> 10
10 - -> 11
11 - -> 13
10 - -> 12
12 - -> 13
4 - -> 6
6 - -> 9
4 - -> 7
7 - -> 9
4 - -> 8
8 - -> 9
1 - -> 3
3 - -> 4

@enduml

PlantUML version 1.2022.7(Tue Aug 23 02:01:30 JST 2022)
(GPL source distribution)
Java Runtime: Java(TM) SE Runtime Environment
JVM: Java HotSpot(TM) 64-Bit Server VM
Default Encoding: UTF-8
Language: ja
Country: JP
--></g></svg>