<svg xmlns="http://www.w3.org/2000/svg" xmlns:xlink="http://www.w3.org/1999/xlink" contentStyleType="text/css" height="681px" preserveAspectRatio="none" style="width:818px;height:681px;background:#FFFFFF;" version="1.1" viewBox="0 0 818 681" width="818px" zoomAndPan="magnify"><defs/><g><!--entity 1--><g id="elem_1"><rect fill="#F1F1F1" height="36.2969" rx="2.5" ry="2.5" style="stroke:#181818;stroke-width:0.5;" width="100.9235" x="416.23" y="7"/><text fill="#000000" font-family="sans-serif" font-size="14" lengthAdjust="spacing" textLength="80.9235" x="426.23" y="29.9951">&#12468;&#12540;&#12523;(&#30446;&#30340;)</text></g><g id="elem_2"><ellipse cx="466.6942" cy="117.8236" fill="#A9A9A9" rx="31.2842" ry="14.5236" style="stroke:#181818;stroke-width:0.5;"/><text fill="#000000" font-family="sans-serif" font-size="14" lengthAdjust="spacing" textLength="27.9999" x="452.6942" y="120.6703">&#35373;&#35336;</text></g><g id="elem_3"><ellipse cx="466.6941" cy="208.1128" fill="#A9A9A9" rx="66.8141" ry="15.7628" style="stroke:#181818;stroke-width:0.5;"/><text fill="#000000" font-family="sans-serif" font-size="14" lengthAdjust="spacing" textLength="83.9996" x="421.6943" y="211.8604">&#12524;&#12499;&#12517;&#12540;&#23550;&#24540;</text></g><g id="elem_4"><ellipse cx="184.6934" cy="299.9007" fill="#A9A9A9" rx="68.1534" ry="16.0307" style="stroke:#181818;stroke-width:0.5;"/><text fill="#000000" font-family="sans-serif" font-size="14" lengthAdjust="spacing" textLength="87.7596" x="137.8136" y="303.6482">feature1&#38283;&#30330;</text></g><g id="elem_GMN6"><path d="M6,287.34 L6,312.4728 A0,0 0 0 0 6,312.4728 L81.3868,312.4728 A0,0 0 0 0 81.3868,312.4728 L81.3868,305.34 L116.3,299.9 L81.3868,297.34 L81.3868,297.34 L71.3868,287.34 L6,287.34 A0,0 0 0 0 6,287.34 " fill="#FEFFDD" style="stroke:#181818;stroke-width:0.5;"/><path d="M71.3868,287.34 L71.3868,297.34 L81.3868,297.34 L71.3868,287.34 " fill="#FEFFDD" style="stroke:#181818;stroke-width:0.5;"/><text fill="#000000" font-family="sans-serif" font-size="13" lengthAdjust="spacing" textLength="54.3868" x="12" y="304.4069">xx&#12364;&#25285;&#24403;</text></g><g id="elem_5"><ellipse cx="241.6941" cy="391.7028" fill="#A9A9A9" rx="66.8141" ry="15.7628" style="stroke:#181818;stroke-width:0.5;"/><text fill="#000000" font-family="sans-serif" font-size="14" lengthAdjust="spacing" textLength="83.9996" x="196.6943" y="395.4504">&#12524;&#12499;&#12517;&#12540;&#23550;&#24540;</text></g><g id="elem_9"><ellipse cx="466.6867" cy="482.2773" fill="#F1F1F1" rx="62.0867" ry="14.8173" style="stroke:#181818;stroke-width:0.5;"/><text fill="#000000" font-family="sans-serif" font-size="14" lengthAdjust="spacing" textLength="69.9997" x="428.6869" y="486.0249">&#32080;&#21512;&#12486;&#12473;&#12488;</text></g><g id="elem_10"><ellipse cx="466.6941" cy="571.7984" fill="#F1F1F1" rx="51.8541" ry="14.7084" style="stroke:#181818;stroke-width:0.5;"/><text fill="#000000" font-family="sans-serif" font-size="14" lengthAdjust="spacing" textLength="55.9998" x="435.6942" y="575.546">&#12522;&#12522;&#12540;&#12473;</text></g><g id="elem_11"><ellipse cx="466.6891" cy="661.0737" fill="#F1F1F1" rx="38.2691" ry="14.5537" style="stroke:#181818;stroke-width:0.5;"/><text fill="#000000" font-family="sans-serif" font-size="14" lengthAdjust="spacing" textLength="37.748" x="446.0159" y="664.5098">finish</text></g><g id="elem_6"><ellipse cx="466.6934" cy="299.9007" fill="#A9A9A9" rx="68.1534" ry="16.0307" style="stroke:#181818;stroke-width:0.5;"/><text fill="#000000" font-family="sans-serif" font-size="14" lengthAdjust="spacing" textLength="87.7596" x="419.8136" y="303.6482">feature2&#38283;&#30330;</text></g><g id="elem_GMN14"><path d="M288,287.34 L288,312.4728 A0,0 0 0 0 288,312.4728 L363.3868,312.4728 A0,0 0 0 0 363.3868,312.4728 L363.3868,305.34 L398.3,299.9 L363.3868,297.34 L363.3868,297.34 L353.3868,287.34 L288,287.34 A0,0 0 0 0 288,287.34 " fill="#FEFFDD" style="stroke:#181818;stroke-width:0.5;"/><path d="M353.3868,287.34 L353.3868,297.34 L363.3868,297.34 L353.3868,287.34 " fill="#FEFFDD" style="stroke:#181818;stroke-width:0.5;"/><text fill="#000000" font-family="sans-serif" font-size="13" lengthAdjust="spacing" textLength="54.3868" x="294" y="304.4069">yy&#12364;&#25285;&#24403;</text></g><g id="elem_7"><ellipse cx="466.6941" cy="391.7028" fill="#F1F1F1" rx="66.8141" ry="15.7628" style="stroke:#181818;stroke-width:0.5;"/><text fill="#000000" font-family="sans-serif" font-size="14" lengthAdjust="spacing" textLength="83.9996" x="421.6943" y="395.4504">&#12524;&#12499;&#12517;&#12540;&#23550;&#24540;</text></g><g id="elem_8"><ellipse cx="745.6941" cy="299.9028" fill="#F1F1F1" rx="66.8141" ry="15.7628" style="stroke:#181818;stroke-width:0.5;"/><text fill="#000000" font-family="sans-serif" font-size="14" lengthAdjust="spacing" textLength="83.9996" x="700.6943" y="303.6504">&#12452;&#12531;&#12501;&#12521;&#28310;&#20633;</text></g><g id="elem_GMN19"><path d="M569.87,287.34 L569.87,312.4728 A0,0 0 0 0 569.87,312.4728 L643.5175,312.4728 A0,0 0 0 0 643.5175,312.4728 L643.5175,305.34 L678.49,299.9 L643.5175,297.34 L643.5175,297.34 L633.5175,287.34 L569.87,287.34 A0,0 0 0 0 569.87,287.34 " fill="#FEFFDD" style="stroke:#181818;stroke-width:0.5;"/><path d="M633.5175,287.34 L633.5175,297.34 L643.5175,297.34 L633.5175,287.34 " fill="#FEFFDD" style="stroke:#181818;stroke-width:0.5;"/><text fill="#000000" font-family="sans-serif" font-size="13" lengthAdjust="spacing" textLength="52.6475" x="575.87" y="304.4069">zz&#12364;&#25285;&#24403;</text></g><!--link 1 to 2--><g id="link_1_2"><path d="M466.69,43.64 C466.69,60.93 466.69,81.04 466.69,96.95 " fill="none" id="1-to-2" style="stroke:#181818;stroke-width:1.0;"/><polygon fill="#181818" points="466.69,102.95,470.69,93.95,466.69,97.95,462.69,93.95,466.69,102.95" style="stroke:#181818;stroke-width:1.0;"/></g><!--link 2 to 3--><g id="link_2_3"><path d="M466.69,132.62 C466.69,148.72 466.69,169.26 466.69,185.93 " fill="none" id="2-to-3" style="stroke:#181818;stroke-width:1.0;"/><polygon fill="#181818" points="466.69,191.93,470.69,182.93,466.69,186.93,462.69,182.93,466.69,191.93" style="stroke:#181818;stroke-width:1.0;"/></g><!--link 3 to 4--><g id="link_3_4"><path d="M428.07,221.41 C374.37,238.51 283.407,267.4691 229.467,284.6491 " fill="none" id="3-to-4" style="stroke:#181818;stroke-width:1.0;"/><polygon fill="#181818" points="223.75,286.47,233.5395,287.55,228.5142,284.9526,231.1116,279.9273,223.75,286.47" style="stroke:#181818;stroke-width:1.0;"/></g><!--link 4 to 5--><g id="link_4_5"><path d="M194.36,316.14 C204.91,332.75 218.4637,354.1049 228.9537,370.6249 " fill="none" id="4-to-5" style="stroke:#181818;stroke-width:1.0;"/><polygon fill="#181818" points="232.17,375.69,230.7223,365.9481,229.4898,371.4691,223.9688,370.2365,232.17,375.69" style="stroke:#181818;stroke-width:1.0;"/></g><!--link 5 to 9--><g id="link_5_9"><path d="M274.89,405.77 C318.17,422.8 387.7071,450.182 429.9471,466.812 " fill="none" id="5-to-9" style="stroke:#181818;stroke-width:1.0;"/><polygon fill="#181818" points="435.53,469.01,428.621,461.9911,430.8776,467.1783,425.6903,469.4349,435.53,469.01" style="stroke:#181818;stroke-width:1.0;"/></g><!--link 9 to 10--><g id="link_9_10"><path d="M466.69,497.34 C466.69,513.67 466.69,534.46 466.69,550.78 " fill="none" id="9-to-10" style="stroke:#181818;stroke-width:1.0;"/><polygon fill="#181818" points="466.69,556.78,470.69,547.78,466.69,551.78,462.69,547.78,466.69,556.78" style="stroke:#181818;stroke-width:1.0;"/></g><!--link 10 to 11--><g id="link_10_11"><path d="M466.69,586.82 C466.69,603.11 466.69,623.81 466.69,640.08 " fill="none" id="10-to-11" style="stroke:#181818;stroke-width:1.0;"/><polygon fill="#181818" points="466.69,646.08,470.69,637.08,466.69,641.08,462.69,637.08,466.69,646.08" style="stroke:#181818;stroke-width:1.0;"/></g><!--link 3 to 6--><g id="link_3_6"><path d="M466.69,224.34 C466.69,240.86 466.69,261.06 466.69,277.6 " fill="none" id="3-to-6" style="stroke:#181818;stroke-width:1.0;"/><polygon fill="#181818" points="466.69,283.6,470.69,274.6,466.69,278.6,462.69,274.6,466.69,283.6" style="stroke:#181818;stroke-width:1.0;"/></g><!--link 6 to 7--><g id="link_6_7"><path d="M466.69,316.14 C466.69,332.75 466.69,353.17 466.69,369.69 " fill="none" id="6-to-7" style="stroke:#181818;stroke-width:1.0;"/><polygon fill="#181818" points="466.69,375.69,470.69,366.69,466.69,370.69,462.69,366.69,466.69,375.69" style="stroke:#181818;stroke-width:1.0;"/></g><!--link 7 to 9--><g id="link_7_9"><path d="M466.69,407.72 C466.69,424.31 466.69,444.8 466.69,461.06 " fill="none" id="7-to-9" style="stroke:#181818;stroke-width:1.0;"/><polygon fill="#181818" points="466.69,467.06,470.69,458.06,466.69,462.06,462.69,458.06,466.69,467.06" style="stroke:#181818;stroke-width:1.0;"/></g><!--link 3 to 8--><g id="link_3_8"><path d="M504.9,221.41 C558.18,238.56 648.5184,267.6322 701.7884,284.7722 " fill="none" id="3-to-8" style="stroke:#181818;stroke-width:1.0;"/><polygon fill="#181818" points="707.5,286.61,700.1577,280.0456,702.7403,285.0785,697.7074,287.6611,707.5,286.61" style="stroke:#181818;stroke-width:1.0;"/></g><!--link 8 to 9--><g id="link_8_9"><path d="M723.8,315.06 C671.26,349.03 543.6284,431.532 492.3784,464.672 " fill="none" id="8-to-9" style="stroke:#181818;stroke-width:1.0;"/><polygon fill="#181818" points="487.34,467.93,497.0696,466.4019,491.5387,465.215,492.7256,459.6841,487.34,467.93" style="stroke:#181818;stroke-width:1.0;"/></g><!--SRC=[dO_DIiD058Ntzoc6kj55ePF_R5m9FiTGfrei4P8KckxCg1Jgeb0iL5qgr9_gGbrOgZxC9Krz2-DCmG43WZ1mPixzk6TEoEin2tPRd5GmVKOnHt6tdbyyvET76nN28aAX7V4wYmfWEPak9ptf6cHjYuNxso5BVkOexb4CKLmNQxB7z-pZKh9c6TlWB6w7d7wE-lbu9ZbBuuA3c9CMRyJGwU3XwQ9_dBqDWGSxv7loPwHT5fc_3B913yK9fgyeL0zVNtKhpxmOg-OrxRlDe1djAPl-Qc5eBPpI5adoZnQkHgHNA9vGdA6uMSn6MJgMXAT5TBib4K19jRf9332acc1AjS2IQeCjrGTVQb6PrjIDhb077Aakk2jK-Hvuwlq5]--></g></svg>