<?xml version="1.0" encoding="UTF-8" standalone="no"?><svg xmlns="http://www.w3.org/2000/svg" xmlns:xlink="http://www.w3.org/1999/xlink" contentScriptType="application/ecmascript" contentStyleType="text/css" height="696px" preserveAspectRatio="none" style="width:824px;height:696px;background:#FFFFFF;" version="1.1" viewBox="0 0 824 696" width="824px" zoomAndPan="magnify"><defs><filter height="300%" id="f1gajgq0k8ekgv" width="300%" x="-1" y="-1"><feGaussianBlur result="blurOut" stdDeviation="2.0"/><feColorMatrix in="blurOut" result="blurOut2" type="matrix" values="0 0 0 0 0 0 0 0 0 0 0 0 0 0 0 0 0 0 .4 0"/><feOffset dx="4.0" dy="4.0" in="blurOut2" result="blurOut3"/><feBlend in="SourceGraphic" in2="blurOut3" mode="normal"/></filter></defs><g><!--MD5=[13c7745981a6abb6004f7738a8ca5078]
entity 1--><rect fill="#FEFECE" filter="url(#f1gajgq0k8ekgv)" height="37.6094" style="stroke:#000000;stroke-width:1.5;" width="100" x="413" y="7"/><text fill="#000000" font-family="sans-serif" font-size="14" lengthAdjust="spacing" textLength="80" x="423" y="31.5332">ゴール(目的)</text><ellipse cx="462.7843" cy="120.4517" fill="#A9A9A9" filter="url(#f1gajgq0k8ekgv)" rx="31.2843" ry="15.4517" style="stroke:#A80036;stroke-width:1.5;"/><text fill="#000000" font-family="sans-serif" font-size="14" lengthAdjust="spacing" textLength="28" x="448.7843" y="124.1802">設計</text><ellipse cx="462.7688" cy="212.1538" fill="#A9A9A9" filter="url(#f1gajgq0k8ekgv)" rx="68.7688" ry="16.1538" style="stroke:#A80036;stroke-width:1.5;"/><text fill="#000000" font-family="sans-serif" font-size="14" lengthAdjust="spacing" textLength="84" x="417.7688" y="216.6704">レビュー対応</text><ellipse cx="182.7517" cy="303.9503" fill="#FEFECE" filter="url(#f1gajgq0k8ekgv)" rx="67.7517" ry="15.9503" style="stroke:#A80036;stroke-width:1.5;"/><text fill="#000000" font-family="sans-serif" font-size="14" lengthAdjust="spacing" textLength="81" x="139.2517" y="308.4669">feature1開発</text><path d="M6,291 L6,317.3516 A0,0 0 0 0 6,317.3516 L80,317.3516 A0,0 0 0 0 80,317.3516 L80,309 L114.73,304 L80,301 L80,301 L70,291 L6,291 A0,0 0 0 0 6,291 " fill="#FBFB77" filter="url(#f1gajgq0k8ekgv)" style="stroke:#A80036;stroke-width:1.0;"/><path d="M70,291 L70,301 L80,301 L70,291 " fill="#FBFB77" style="stroke:#A80036;stroke-width:1.0;"/><text fill="#000000" font-family="sans-serif" font-size="13" lengthAdjust="spacing" textLength="53" x="12" y="309.4951">xxが担当</text><ellipse cx="236.7688" cy="396.1538" fill="#FEFECE" filter="url(#f1gajgq0k8ekgv)" rx="68.7688" ry="16.1538" style="stroke:#A80036;stroke-width:1.5;"/><text fill="#000000" font-family="sans-serif" font-size="14" lengthAdjust="spacing" textLength="84" x="191.7688" y="400.6704">レビュー対応</text><ellipse cx="463.1463" cy="487.5942" fill="#FEFECE" filter="url(#f1gajgq0k8ekgv)" rx="61.6463" ry="15.5942" style="stroke:#A80036;stroke-width:1.5;"/><text fill="#000000" font-family="sans-serif" font-size="14" lengthAdjust="spacing" textLength="70" x="425.1463" y="492.1108">結合テスト</text><ellipse cx="462.8032" cy="578.5087" fill="#FEFECE" filter="url(#f1gajgq0k8ekgv)" rx="51.3032" ry="15.5087" style="stroke:#A80036;stroke-width:1.5;"/><text fill="#000000" font-family="sans-serif" font-size="14" lengthAdjust="spacing" textLength="56" x="431.8032" y="583.0253">リリース</text><ellipse cx="462.8198" cy="669.4517" fill="#A9A9A9" filter="url(#f1gajgq0k8ekgv)" rx="34.8198" ry="15.4517" style="stroke:#A80036;stroke-width:1.5;"/><text fill="#000000" font-family="sans-serif" font-size="14" lengthAdjust="spacing" textLength="33" x="446.3198" y="673.1802">finish</text><ellipse cx="462.7517" cy="303.9503" fill="#A9A9A9" filter="url(#f1gajgq0k8ekgv)" rx="67.7517" ry="15.9503" style="stroke:#A80036;stroke-width:1.5;"/><text fill="#000000" font-family="sans-serif" font-size="14" lengthAdjust="spacing" textLength="81" x="419.2517" y="308.4669">feature2開発</text><path d="M286,291 L286,317.3516 A0,0 0 0 0 286,317.3516 L360,317.3516 A0,0 0 0 0 360,317.3516 L360,309 L394.73,304 L360,301 L360,301 L350,291 L286,291 A0,0 0 0 0 286,291 " fill="#FBFB77" filter="url(#f1gajgq0k8ekgv)" style="stroke:#A80036;stroke-width:1.0;"/><path d="M350,291 L350,301 L360,301 L350,291 " fill="#FBFB77" style="stroke:#A80036;stroke-width:1.0;"/><text fill="#000000" font-family="sans-serif" font-size="13" lengthAdjust="spacing" textLength="53" x="292" y="309.4951">yyが担当</text><ellipse cx="462.7688" cy="396.1538" fill="#FEFECE" filter="url(#f1gajgq0k8ekgv)" rx="68.7688" ry="16.1538" style="stroke:#A80036;stroke-width:1.5;"/><text fill="#000000" font-family="sans-serif" font-size="14" lengthAdjust="spacing" textLength="84" x="417.7688" y="400.6704">レビュー対応</text><ellipse cx="743.7688" cy="304.1538" fill="#FEFECE" filter="url(#f1gajgq0k8ekgv)" rx="68.7688" ry="16.1538" style="stroke:#A80036;stroke-width:1.5;"/><text fill="#000000" font-family="sans-serif" font-size="14" lengthAdjust="spacing" textLength="84" x="698.7688" y="308.6704">インフラ準備</text><path d="M566,291 L566,317.3516 A0,0 0 0 0 566,317.3516 L640,317.3516 A0,0 0 0 0 640,317.3516 L640,309 L674.65,304 L640,301 L640,301 L630,291 L566,291 A0,0 0 0 0 566,291 " fill="#FBFB77" filter="url(#f1gajgq0k8ekgv)" style="stroke:#A80036;stroke-width:1.0;"/><path d="M630,291 L630,301 L640,301 L630,291 " fill="#FBFB77" style="stroke:#A80036;stroke-width:1.0;"/><text fill="#000000" font-family="sans-serif" font-size="13" lengthAdjust="spacing" textLength="53" x="572" y="309.4951">zzが担当</text><!--MD5=[0ba0d8a0fd0e641c23f69743a446dfe6]
link 1 to 2--><path d="M463,45.28 C463,60.98 463,83.58 463,99.71 " fill="none" id="1-to-2" style="stroke:#A80036;stroke-width:1.0;"/><polygon fill="#A80036" points="463,104.91,467,95.91,463,99.91,459,95.91,463,104.91" style="stroke:#A80036;stroke-width:1.0;"/><!--MD5=[eeb69082328d10abd3b14fdeede0d8a3]
link 2 to 3--><path d="M463,136.28 C463,151.09 463,174 463,190.55 " fill="none" id="2-to-3" style="stroke:#A80036;stroke-width:1.0;"/><polygon fill="#A80036" points="463,195.9,467,186.9,463,190.9,459,186.9,463,195.9" style="stroke:#A80036;stroke-width:1.0;"/><!--MD5=[b1f22f0c97e7f2b556a5a2d67c42ac53]
link 3 to 4--><path d="M424.65,225.33 C372.75,242.01 280.4,271.69 226.14,289.13 " fill="none" id="3-to-4" style="stroke:#A80036;stroke-width:1.0;"/><polygon fill="#A80036" points="221.33,290.68,231.1213,291.7435,226.0916,289.1546,228.6806,284.1249,221.33,290.68" style="stroke:#A80036;stroke-width:1.0;"/><!--MD5=[fb7a877824a531edc27ce1774c90edf7]
link 4 to 5--><path d="M192.16,320.27 C201.29,335.49 215.35,358.92 225.29,375.48 " fill="none" id="4-to-5" style="stroke:#A80036;stroke-width:1.0;"/><polygon fill="#A80036" points="227.97,379.96,226.7695,370.1846,225.3975,375.6725,219.9096,374.3005,227.97,379.96" style="stroke:#A80036;stroke-width:1.0;"/><!--MD5=[85d7481caa8a5b47e793dfeca865a36a]
link 5 to 9--><path d="M270.35,410.21 C312.2,426.78 383.71,455.1 426.84,472.18 " fill="none" id="5-to-9" style="stroke:#A80036;stroke-width:1.0;"/><polygon fill="#A80036" points="431.7,474.11,424.8106,467.0718,427.0527,472.2654,421.8592,474.5075,431.7,474.11" style="stroke:#A80036;stroke-width:1.0;"/><!--MD5=[d626a4137f042c9ed96693ba98ea08de]
link 9 to 10--><path d="M463,503.2 C463,518.01 463,540.98 463,557.46 " fill="none" id="9-to-10" style="stroke:#A80036;stroke-width:1.0;"/><polygon fill="#A80036" points="463,562.78,467,553.78,463,557.78,459,553.78,463,562.78" style="stroke:#A80036;stroke-width:1.0;"/><!--MD5=[ec143eb54b8ec3c64add95129ee53470]
link 10 to 11--><path d="M463,594.2 C463,609.01 463,631.98 463,648.46 " fill="none" id="10-to-11" style="stroke:#A80036;stroke-width:1.0;"/><polygon fill="#A80036" points="463,653.78,467,644.78,463,648.78,459,644.78,463,653.78" style="stroke:#A80036;stroke-width:1.0;"/><!--MD5=[b2ac855d378984b70ee6a5bd13272cbd]
link 3 to 6--><path d="M463,228.27 C463,243.23 463,266.12 463,282.63 " fill="none" id="3-to-6" style="stroke:#A80036;stroke-width:1.0;"/><polygon fill="#A80036" points="463,287.96,467,278.96,463,282.96,459,278.96,463,287.96" style="stroke:#A80036;stroke-width:1.0;"/><!--MD5=[2dfa168d6698efd82f568a8036f37f42]
link 6 to 7--><path d="M463,320.27 C463,335.23 463,358.12 463,374.63 " fill="none" id="6-to-7" style="stroke:#A80036;stroke-width:1.0;"/><polygon fill="#A80036" points="463,379.96,467,370.96,463,374.96,459,370.96,463,379.96" style="stroke:#A80036;stroke-width:1.0;"/><!--MD5=[f702a6f74dbfc96c437701ffeb2365dd]
link 7 to 9--><path d="M463,412.18 C463,427.15 463,450.1 463,466.54 " fill="none" id="7-to-9" style="stroke:#A80036;stroke-width:1.0;"/><polygon fill="#A80036" points="463,471.84,467,462.84,463,466.84,459,462.84,463,471.84" style="stroke:#A80036;stroke-width:1.0;"/><!--MD5=[04920582d08a70334e46792098439deb]
link 3 to 8--><path d="M501.48,225.33 C553.57,242.01 646.25,271.69 700.71,289.13 " fill="none" id="3-to-8" style="stroke:#A80036;stroke-width:1.0;"/><polygon fill="#A80036" points="705.53,290.68,698.1673,284.1386,700.7656,289.1634,695.7407,291.7617,705.53,290.68" style="stroke:#A80036;stroke-width:1.0;"/><!--MD5=[94d95a63a3bd8ceda79afabb6559f4c9]
link 8 to 9--><path d="M721.95,319.24 C670.61,352.41 543.29,434.64 488.61,469.96 " fill="none" id="8-to-9" style="stroke:#A80036;stroke-width:1.0;"/><polygon fill="#A80036" points="484.18,472.82,493.91,471.2945,488.3794,470.1061,489.5678,464.5755,484.18,472.82" style="stroke:#A80036;stroke-width:1.0;"/><!--MD5=[ab1ac0d24d78e6593297495141e66f35]
@startuml
rectangle "ゴール(目的)" as 1
usecase "設計" as 2 #DarkGray
usecase "レビュー対応" as 3 #DarkGray
usecase "feature1開発" as 4
note left
xxが担当
end note
usecase "レビュー対応" as 5
usecase "結合テスト" as 9
usecase "リリース" as 10
usecase "finish" as 11 #DarkGray
usecase "feature2開発" as 6 #DarkGray
note left
yyが担当
end note
usecase "レビュー対応" as 7
usecase "インフラ準備" as 8
note left
zzが担当
end note

1 - -> 2
2 - -> 3
3 - -> 4
4 - -> 5
5 - -> 9
9 - -> 10
10 - -> 11
3 - -> 6
6 - -> 7
7 - -> 9
3 - -> 8
8 - -> 9

@enduml

PlantUML version 1.2022.0(Wed Jan 12 01:16:42 JST 2022)
(GPL source distribution)
Java Runtime: Java(TM) SE Runtime Environment
JVM: Java HotSpot(TM) 64-Bit Server VM
Default Encoding: MS932
Language: ja
Country: JP
--></g></svg>