<svg xmlns="http://www.w3.org/2000/svg" xmlns:xlink="http://www.w3.org/1999/xlink" contentStyleType="text/css" height="720px" preserveAspectRatio="none" style="width:950px;height:720px;background:#FFFFFF;" version="1.1" viewBox="0 0 950 720" width="950px" zoomAndPan="magnify"><defs><linearGradient id="g6gp0pauduf6c0" x1="50%" x2="50%" y1="0%" y2="100%"><stop offset="0%" stop-color="#A9A9A9"/><stop offset="100%" stop-color="#FFFF00"/></linearGradient></defs><g><!--entity 1--><g id="elem_1"><rect fill="#F1F1F1" height="36.2969" rx="2.5" ry="2.5" style="stroke:#181818;stroke-width:0.5;" width="100.9235" x="482.23" y="7"/><text fill="#000000" font-family="sans-serif" font-size="14" lengthAdjust="spacing" textLength="80.9235" x="492.23" y="29.9951">&#12468;&#12540;&#12523;(&#30446;&#30340;)</text></g><g id="elem_2"><ellipse cx="532.6896" cy="119.0219" fill="url(#g6gp0pauduf6c0)" rx="66.6096" ry="15.7219" style="stroke:#181818;stroke-width:0.5;"/><text fill="#000000" font-family="sans-serif" font-size="14" lengthAdjust="spacing" textLength="83.4188" x="487.9802" y="122.7695">&#35373;&#35336; (10.0h)</text></g><g id="elem_3"><ellipse cx="532.691" cy="214.1462" fill="url(#g6gp0pauduf6c0)" rx="85.081" ry="19.4162" style="stroke:#181818;stroke-width:0.5;"/><text fill="#000000" font-family="sans-serif" font-size="14" lengthAdjust="spacing" textLength="130.5114" x="467.4354" y="216.9929">&#12524;&#12499;&#12517;&#12540;&#23550;&#24540; (2.0h)</text></g><g id="elem_4"><ellipse cx="206.6857" cy="314.0971" fill="url(#g6gp0pauduf6c0)" rx="90.6357" ry="20.5271" style="stroke:#181818;stroke-width:0.5;"/><text fill="#000000" font-family="sans-serif" font-size="14" lengthAdjust="spacing" textLength="143.1786" x="135.0965" y="316.9438">feature1&#38283;&#30330; (20.0h)</text></g><g id="elem_GMN6"><path d="M6,301.53 L6,326.6628 A0,0 0 0 0 6,326.6628 L81.3868,326.6628 A0,0 0 0 0 81.3868,326.6628 L81.3868,319.53 L115.79,314.1 L81.3868,311.53 L81.3868,311.53 L71.3868,301.53 L6,301.53 A0,0 0 0 0 6,301.53 " fill="#FEFFDD" style="stroke:#181818;stroke-width:0.5;"/><path d="M71.3868,301.53 L71.3868,311.53 L81.3868,311.53 L71.3868,301.53 " fill="#FEFFDD" style="stroke:#181818;stroke-width:0.5;"/><text fill="#000000" font-family="sans-serif" font-size="13" lengthAdjust="spacing" textLength="54.3868" x="12" y="318.5969">xx&#12364;&#25285;&#24403;</text></g><g id="elem_5"><ellipse cx="267.691" cy="414.0362" fill="url(#g6gp0pauduf6c0)" rx="85.081" ry="19.4162" style="stroke:#181818;stroke-width:0.5;"/><text fill="#000000" font-family="sans-serif" font-size="14" lengthAdjust="spacing" textLength="130.5114" x="202.4354" y="416.8829">&#12524;&#12499;&#12517;&#12540;&#23550;&#24540; (1.5h)</text></g><g id="elem_9"><ellipse cx="532.6901" cy="512.438" fill="#FFFF00" rx="82.8901" ry="18.978" style="stroke:#181818;stroke-width:0.5;"/><text fill="#000000" font-family="sans-serif" font-size="14" lengthAdjust="spacing" textLength="125.4186" x="469.3503" y="515.4973">&#32080;&#21512;&#12486;&#12473;&#12488; (20.0h)</text></g><g id="elem_10"><ellipse cx="532.6866" cy="608.5393" fill="#FFFF00" rx="73.6466" ry="17.1293" style="stroke:#181818;stroke-width:0.5;"/><text fill="#000000" font-family="sans-serif" font-size="14" lengthAdjust="spacing" textLength="102.5115" x="478.4308" y="612.2869">&#12522;&#12522;&#12540;&#12473; (2.0h)</text></g><g id="elem_11"><ellipse cx="532.6891" cy="700.2337" fill="#FFFF00" rx="38.2691" ry="14.5537" style="stroke:#181818;stroke-width:0.5;"/><text fill="#000000" font-family="sans-serif" font-size="14" lengthAdjust="spacing" textLength="37.748" x="512.0159" y="703.6698">finish</text></g><g id="elem_6"><ellipse cx="532.6857" cy="314.0971" fill="#A9A9A9" rx="90.6357" ry="20.5271" style="stroke:#181818;stroke-width:0.5;"/><text fill="#000000" font-family="sans-serif" font-size="14" lengthAdjust="spacing" textLength="143.1786" x="461.0965" y="316.9438">feature2&#38283;&#30330; (15.0h)</text></g><g id="elem_GMN14"><path d="M332,301.53 L332,326.6628 A0,0 0 0 0 332,326.6628 L407.3868,326.6628 A0,0 0 0 0 407.3868,326.6628 L407.3868,319.53 L441.79,314.1 L407.3868,311.53 L407.3868,311.53 L397.3868,301.53 L332,301.53 A0,0 0 0 0 332,301.53 " fill="#FEFFDD" style="stroke:#181818;stroke-width:0.5;"/><path d="M397.3868,301.53 L397.3868,311.53 L407.3868,311.53 L397.3868,301.53 " fill="#FEFFDD" style="stroke:#181818;stroke-width:0.5;"/><text fill="#000000" font-family="sans-serif" font-size="13" lengthAdjust="spacing" textLength="54.3868" x="338" y="318.5969">yy&#12364;&#25285;&#24403;</text></g><g id="elem_7"><ellipse cx="532.691" cy="414.0362" fill="#F1F1F1" rx="85.081" ry="19.4162" style="stroke:#181818;stroke-width:0.5;"/><text fill="#000000" font-family="sans-serif" font-size="14" lengthAdjust="spacing" textLength="130.5114" x="467.4354" y="416.8829">&#12524;&#12499;&#12517;&#12540;&#23550;&#24540; (1.5h)</text></g><g id="elem_8"><ellipse cx="855.6857" cy="314.0951" fill="#F1F1F1" rx="88.9757" ry="20.1951" style="stroke:#181818;stroke-width:0.5;"/><text fill="#000000" font-family="sans-serif" font-size="14" lengthAdjust="spacing" textLength="139.4186" x="785.9764" y="316.9418">&#12452;&#12531;&#12501;&#12521;&#28310;&#20633; (15.0h)</text></g><g id="elem_GMN19"><path d="M657.87,301.53 L657.87,326.6628 A0,0 0 0 0 657.87,326.6628 L731.5175,326.6628 A0,0 0 0 0 731.5175,326.6628 L731.5175,319.53 L766.64,314.1 L731.5175,311.53 L731.5175,311.53 L721.5175,301.53 L657.87,301.53 A0,0 0 0 0 657.87,301.53 " fill="#FEFFDD" style="stroke:#181818;stroke-width:0.5;"/><path d="M721.5175,301.53 L721.5175,311.53 L731.5175,311.53 L721.5175,301.53 " fill="#FEFFDD" style="stroke:#181818;stroke-width:0.5;"/><text fill="#000000" font-family="sans-serif" font-size="13" lengthAdjust="spacing" textLength="52.6475" x="663.87" y="318.5969">zz&#12364;&#25285;&#24403;</text></g><!--link 1 to 2--><g id="link_1_2"><path d="M532.69,43.43 C532.69,60.58 532.69,80.61 532.69,96.94 " fill="none" id="1-to-2" style="stroke:#181818;stroke-width:1.0;"/><polygon fill="#181818" points="532.69,102.94,536.69,93.94,532.69,97.94,528.69,93.94,532.69,102.94" style="stroke:#181818;stroke-width:1.0;"/></g><!--link 2 to 3--><g id="link_2_3"><path d="M532.69,134.98 C532.69,151.13 532.69,170.87 532.69,188.37 " fill="none" id="2-to-3" style="stroke:#181818;stroke-width:1.0;"/><polygon fill="#181818" points="532.69,194.37,536.69,185.37,532.69,189.37,528.69,185.37,532.69,194.37" style="stroke:#181818;stroke-width:1.0;"/></g><!--link 3 to 4--><g id="link_3_4"><path d="M482.47,230.24 C422.19,248.35 327.2962,276.8633 265.6962,295.3733 " fill="none" id="3-to-4" style="stroke:#181818;stroke-width:1.0;"/><polygon fill="#181818" points="259.95,297.1,269.7204,298.3408,264.7385,295.6611,267.4182,290.6792,259.95,297.1" style="stroke:#181818;stroke-width:1.0;"/></g><!--link 4 to 5--><g id="link_4_5"><path d="M219.04,334.92 C229.9,352.36 242.4194,372.4561 253.0194,389.4861 " fill="none" id="4-to-5" style="stroke:#181818;stroke-width:1.0;"/><polygon fill="#181818" points="256.19,394.58,254.83,384.8255,253.5479,390.3351,248.0382,389.0529,256.19,394.58" style="stroke:#181818;stroke-width:1.0;"/></g><!--link 5 to 9--><g id="link_5_9"><path d="M311.75,431.07 C361.2,449.06 435.2612,475.9995 484.2112,493.7995 " fill="none" id="5-to-9" style="stroke:#181818;stroke-width:1.0;"/><polygon fill="#181818" points="489.85,495.85,482.7588,489.0151,485.151,494.1413,480.0249,496.5335,489.85,495.85" style="stroke:#181818;stroke-width:1.0;"/></g><!--link 9 to 10--><g id="link_9_10"><path d="M532.69,531.58 C532.69,548.78 532.69,568.39 532.69,585.03 " fill="none" id="9-to-10" style="stroke:#181818;stroke-width:1.0;"/><polygon fill="#181818" points="532.69,591.03,536.69,582.03,532.69,586.03,528.69,582.03,532.69,591.03" style="stroke:#181818;stroke-width:1.0;"/></g><!--link 10 to 11--><g id="link_10_11"><path d="M532.69,625.99 C532.69,642.98 532.69,663.21 532.69,679.24 " fill="none" id="10-to-11" style="stroke:#181818;stroke-width:1.0;"/><polygon fill="#181818" points="532.69,685.24,536.69,676.24,532.69,680.24,528.69,676.24,532.69,685.24" style="stroke:#181818;stroke-width:1.0;"/></g><!--link 3 to 6--><g id="link_3_6"><path d="M532.69,234.04 C532.69,251.05 532.69,269.97 532.69,287.26 " fill="none" id="3-to-6" style="stroke:#181818;stroke-width:1.0;"/><polygon fill="#181818" points="532.69,293.26,536.69,284.26,532.69,288.26,528.69,284.26,532.69,293.26" style="stroke:#181818;stroke-width:1.0;"/></g><!--link 6 to 7--><g id="link_6_7"><path d="M532.69,334.92 C532.69,352.25 532.69,371.23 532.69,388.25 " fill="none" id="6-to-7" style="stroke:#181818;stroke-width:1.0;"/><polygon fill="#181818" points="532.69,394.25,536.69,385.25,532.69,389.25,528.69,385.25,532.69,394.25" style="stroke:#181818;stroke-width:1.0;"/></g><!--link 7 to 9--><g id="link_7_9"><path d="M532.69,433.63 C532.69,450.81 532.69,470.18 532.69,487.23 " fill="none" id="7-to-9" style="stroke:#181818;stroke-width:1.0;"/><polygon fill="#181818" points="532.69,493.23,536.69,484.23,532.69,488.23,528.69,484.23,532.69,493.23" style="stroke:#181818;stroke-width:1.0;"/></g><!--link 3 to 8--><g id="link_3_8"><path d="M582.45,230.24 C642.44,248.43 737.0381,277.1191 797.9881,295.5991 " fill="none" id="3-to-8" style="stroke:#181818;stroke-width:1.0;"/><polygon fill="#181818" points="803.73,297.34,796.2778,290.9007,798.9451,295.8892,793.9566,298.5565,803.73,297.34" style="stroke:#181818;stroke-width:1.0;"/></g><!--link 8 to 9--><g id="link_8_9"><path d="M825.6,333.39 C763.42,371.19 626.6872,454.3037 566.1072,491.1237 " fill="none" id="8-to-9" style="stroke:#181818;stroke-width:1.0;"/><polygon fill="#181818" points="560.98,494.24,570.7484,492.9837,565.2527,491.6431,566.5933,486.1474,560.98,494.24" style="stroke:#181818;stroke-width:1.0;"/></g><!--SRC=[AqfDBadCIyz9LL1wtBJbSVEUnyshDPxFNlTyLekcaa9YiO8XLsbnQd9YCL31YnLhNwpeKD0mDD0po8386YaekoGMPRiN9LRgHgRcvEIN8vG_Rbxpk7dou-QbG5EVhj_tTFyS1GqZk4vZF3hJKXDBIejI3LzEwtu-SnTG5y924qnjUVabgGevgMabN1KLZnjxddMtFjqxcIirBqK198FVFOPwfb23JV6uv_dM2KydT3nkRdlSjFDnSmUAWomLb34zlWgCzW2L8tlPq01JRLfcNcPn1aJQ48iq92ICO25XQ0etpGpXOAGWgAmaFmZCaHGsBNdSlFbnyzJ7pIkVxPhsj6acYjqMI3PMLM6naSjGGLVNJi68omXC6tCPWsaJBXCmRSfb2gOjkIp1jA415p1mm2n3g58pBZCmRSvb3bKA4RVWie3m0G00]--></g></svg>