<?xml version="1.0" encoding="UTF-8" standalone="no"?><svg xmlns="http://www.w3.org/2000/svg" xmlns:xlink="http://www.w3.org/1999/xlink" contentScriptType="application/ecmascript" contentStyleType="text/css" height="789px" preserveAspectRatio="none" style="width:1875px;height:789px;background:#FFFFFF;" version="1.1" viewBox="0 0 1875 789" width="1875px" zoomAndPan="magnify"><defs><filter height="300%" id="f94zuakd9iqdm" width="300%" x="-1" y="-1"><feGaussianBlur result="blurOut" stdDeviation="2.0"/><feColorMatrix in="blurOut" result="blurOut2" type="matrix" values="0 0 0 0 0 0 0 0 0 0 0 0 0 0 0 0 0 0 .4 0"/><feOffset dx="4.0" dy="4.0" in="blurOut2" result="blurOut3"/><feBlend in="SourceGraphic" in2="blurOut3" mode="normal"/></filter></defs><g><!--MD5=[13c7745981a6abb6004f7738a8ca5078]
entity 1--><rect fill="#FEFECE" filter="url(#f94zuakd9iqdm)" height="37.6094" style="stroke:#000000;stroke-width:1.5;" width="62" x="960.5" y="7"/><text fill="#000000" font-family="sans-serif" font-size="14" lengthAdjust="spacing" textLength="42" x="970.5" y="31.5332">夜ご飯</text><!--MD5=[773709cb2207c097691e7e7d3d2cc787]
entity 2--><rect fill="#FEFECE" filter="url(#f94zuakd9iqdm)" height="37.6094" style="stroke:#000000;stroke-width:1.5;" width="62" x="505.5" y="105"/><text fill="#000000" font-family="sans-serif" font-size="14" lengthAdjust="spacing" textLength="42" x="515.5" y="129.5332">みそ汁</text><ellipse cx="254.7427" cy="227.1485" fill="#FEFECE" filter="url(#f94zuakd9iqdm)" rx="73.7427" ry="17.1485" style="stroke:#A80036;stroke-width:1.5;"/><text fill="#000000" font-family="sans-serif" font-size="14" lengthAdjust="spacing" textLength="98" x="202.7427" y="231.6651">だし汁を沸かす</text><ellipse cx="79.7427" cy="334.6485" fill="#FEFECE" filter="url(#f94zuakd9iqdm)" rx="73.7427" ry="17.1485" style="stroke:#A80036;stroke-width:1.5;"/><text fill="#000000" font-family="sans-serif" font-size="14" lengthAdjust="spacing" textLength="98" x="27.7427" y="339.1651">わかめを入れる</text><ellipse cx="244.3297" cy="445.0659" fill="#FEFECE" filter="url(#f94zuakd9iqdm)" rx="90.8297" ry="20.5659" style="stroke:#A80036;stroke-width:1.5;"/><text fill="#000000" font-family="sans-serif" font-size="14" lengthAdjust="spacing" textLength="140" x="174.3297" y="448.7945">沸騰したら火を止める</text><ellipse cx="539.2688" cy="662.6538" fill="#FEFECE" filter="url(#f94zuakd9iqdm)" rx="68.7688" ry="16.1538" style="stroke:#A80036;stroke-width:1.5;"/><text fill="#000000" font-family="sans-serif" font-size="14" lengthAdjust="spacing" textLength="84" x="494.2688" y="667.1704">味噌を溶かす</text><ellipse cx="1090.2843" cy="762.4517" fill="#FEFECE" filter="url(#f94zuakd9iqdm)" rx="31.2843" ry="15.4517" style="stroke:#A80036;stroke-width:1.5;"/><text fill="#000000" font-family="sans-serif" font-size="14" lengthAdjust="spacing" textLength="28" x="1076.2843" y="766.1802">完成</text><ellipse cx="257.2688" cy="334.6538" fill="#FEFECE" filter="url(#f94zuakd9iqdm)" rx="68.7688" ry="16.1538" style="stroke:#A80036;stroke-width:1.5;"/><text fill="#000000" font-family="sans-serif" font-size="14" lengthAdjust="spacing" textLength="84" x="212.2688" y="339.1704">ネギを入れる</text><!--MD5=[df1cfc51a8f3e60039521c9170723b8d]
entity 8--><rect fill="#FEFECE" filter="url(#f94zuakd9iqdm)" height="37.6094" style="stroke:#000000;stroke-width:1.5;" width="76" x="884.5" y="105"/><text fill="#000000" font-family="sans-serif" font-size="14" lengthAdjust="spacing" textLength="56" x="894.5" y="129.5332">生姜焼き</text><!--MD5=[dc00b6f0bfcb3e33cce0c0c30000e56b]
entity 17--><rect fill="#FEFECE" filter="url(#f94zuakd9iqdm)" height="37.6094" style="stroke:#000000;stroke-width:1.5;" width="48" x="370.5" y="426"/><text fill="#000000" font-family="sans-serif" font-size="14" lengthAdjust="spacing" textLength="28" x="380.5" y="450.5332">豚肉</text><ellipse cx="576.6901" cy="555.038" fill="#FEFECE" filter="url(#f94zuakd9iqdm)" rx="103.1901" ry="23.038" style="stroke:#A80036;stroke-width:1.5;"/><text fill="#000000" font-family="sans-serif" font-size="14" lengthAdjust="spacing" textLength="168" x="492.6901" y="558.7665">薄く焼き目が付くまで焼く</text><ellipse cx="922.3478" cy="662.3696" fill="#FEFECE" filter="url(#f94zuakd9iqdm)" rx="84.8478" ry="19.3696" style="stroke:#A80036;stroke-width:1.5;"/><text fill="#000000" font-family="sans-serif" font-size="14" lengthAdjust="spacing" textLength="126" x="859.3478" y="666.0981">タレと絡めて炒める</text><!--MD5=[d25218acdea247ba6571a34297258ee9]
entity 9--><rect fill="#FEFECE" filter="url(#f94zuakd9iqdm)" height="37.6094" style="stroke:#000000;stroke-width:1.5;" width="48" x="898.5" y="208"/><text fill="#000000" font-family="sans-serif" font-size="14" lengthAdjust="spacing" textLength="28" x="908.5" y="232.5332">タレ</text><ellipse cx="540.3935" cy="334.5787" fill="#FEFECE" filter="url(#f94zuakd9iqdm)" rx="105.8935" ry="23.5787" style="stroke:#A80036;stroke-width:1.5;"/><text fill="#000000" font-family="sans-serif" font-size="14" lengthAdjust="spacing" textLength="174" x="453.3935" y="338.3072">生姜ひとかけの3/4をおろす</text><ellipse cx="576.4113" cy="444.8823" fill="#FEFECE" filter="url(#f94zuakd9iqdm)" rx="122.4113" ry="26.8823" style="stroke:#A80036;stroke-width:1.5;"/><text fill="#000000" font-family="sans-serif" font-size="14" lengthAdjust="spacing" textLength="210" x="471.4113" y="448.6108">残りの生姜を細切りにして入れる</text><ellipse cx="922.6838" cy="444.9517" fill="#FEFECE" filter="url(#f94zuakd9iqdm)" rx="41.1838" ry="15.4517" style="stroke:#A80036;stroke-width:1.5;"/><text fill="#000000" font-family="sans-serif" font-size="14" lengthAdjust="spacing" textLength="42" x="901.6838" y="448.6802">混ぜる</text><ellipse cx="748.2537" cy="334.2507" fill="#FEFECE" filter="url(#f94zuakd9iqdm)" rx="66.7537" ry="15.7507" style="stroke:#A80036;stroke-width:1.5;"/><text fill="#000000" font-family="sans-serif" font-size="14" lengthAdjust="spacing" textLength="78" x="706.2537" y="338.7673">醤油大さじ5</text><ellipse cx="922.5677" cy="334.7135" fill="#FEFECE" filter="url(#f94zuakd9iqdm)" rx="71.5677" ry="16.7135" style="stroke:#A80036;stroke-width:1.5;"/><text fill="#000000" font-family="sans-serif" font-size="14" lengthAdjust="spacing" textLength="92" x="873.5677" y="339.2301">みりん大さじ3</text><ellipse cx="1086.7132" cy="334.5613" fill="#FEFECE" filter="url(#f94zuakd9iqdm)" rx="57.2132" ry="15.5613" style="stroke:#A80036;stroke-width:1.5;"/><text fill="#000000" font-family="sans-serif" font-size="14" lengthAdjust="spacing" textLength="64" x="1051.7132" y="339.0779">酒大さじ1</text><ellipse cx="1245.2537" cy="334.2507" fill="#FEFECE" filter="url(#f94zuakd9iqdm)" rx="66.7537" ry="15.7507" style="stroke:#A80036;stroke-width:1.5;"/><text fill="#000000" font-family="sans-serif" font-size="14" lengthAdjust="spacing" textLength="78" x="1203.2537" y="338.7673">砂糖大さじ1</text><!--MD5=[57f681a101af5b36c45b4d48786b1175]
entity 20--><rect fill="#FEFECE" filter="url(#f94zuakd9iqdm)" height="37.6094" style="stroke:#000000;stroke-width:1.5;" width="132" x="1147.5" y="105"/><text fill="#000000" font-family="sans-serif" font-size="14" lengthAdjust="spacing" textLength="112" x="1157.5" y="129.5332">キャベツの千切り</text><ellipse cx="1259.5226" cy="662.3045" fill="#FEFECE" filter="url(#f94zuakd9iqdm)" rx="109.5226" ry="24.3045" style="stroke:#A80036;stroke-width:1.5;"/><text fill="#000000" font-family="sans-serif" font-size="14" lengthAdjust="spacing" textLength="182" x="1168.5226" y="666.033">キャベツを切って盛り付ける</text><!--MD5=[f23e27573c7a8d7e934deb9fe4d73a5f]
entity 22--><rect fill="#FEFECE" filter="url(#f94zuakd9iqdm)" height="37.6094" style="stroke:#000000;stroke-width:1.5;" width="90" x="1512.5" y="105"/><text fill="#000000" font-family="sans-serif" font-size="14" lengthAdjust="spacing" textLength="70" x="1522.5" y="129.5332">だし巻き卵</text><ellipse cx="1756.2982" cy="226.7596" fill="#FEFECE" filter="url(#f94zuakd9iqdm)" rx="106.7982" ry="23.7596" style="stroke:#A80036;stroke-width:1.5;"/><text fill="#000000" font-family="sans-serif" font-size="14" lengthAdjust="spacing" textLength="176" x="1668.2982" y="230.4882">卵2個とつゆのだしを混ぜる</text><path d="M1419,214 L1419,240.3516 A0,0 0 0 0 1419,240.3516 L1614,240.3516 A0,0 0 0 0 1614,240.3516 L1614,232 L1649.42,227 L1614,224 L1614,224 L1604,214 L1419,214 A0,0 0 0 0 1419,214 " fill="#FBFB77" filter="url(#f94zuakd9iqdm)" style="stroke:#A80036;stroke-width:1.0;"/><path d="M1604,214 L1604,224 L1614,224 L1604,214 " fill="#FBFB77" style="stroke:#A80036;stroke-width:1.0;"/><text fill="#000000" font-family="sans-serif" font-size="13" lengthAdjust="spacing" textLength="174" x="1425" y="232.4951">つゆのだしは4,5滴でいいかも</text><ellipse cx="1572.2688" cy="555.1538" fill="#FEFECE" filter="url(#f94zuakd9iqdm)" rx="68.7688" ry="16.1538" style="stroke:#A80036;stroke-width:1.5;"/><text fill="#000000" font-family="sans-serif" font-size="14" lengthAdjust="spacing" textLength="84" x="1527.2688" y="559.6704">たまごを焼く</text><!--MD5=[0ba0d8a0fd0e641c23f69743a446dfe6]
link 1 to 2--><path d="M960.23,33.6 C878.63,50.81 659.6,97.03 572.72,115.36 " fill="none" id="1-to-2" style="stroke:#A80036;stroke-width:1.0;"/><polygon fill="#A80036" points="567.69,116.42,577.3198,118.4858,572.5834,115.3928,575.6763,110.6564,567.69,116.42" style="stroke:#A80036;stroke-width:1.0;"/><!--MD5=[eeb69082328d10abd3b14fdeede0d8a3]
link 2 to 3--><path d="M505.24,136.19 C454.61,154.33 354.57,190.16 297.34,210.66 " fill="none" id="2-to-3" style="stroke:#A80036;stroke-width:1.0;"/><polygon fill="#A80036" points="292.62,212.35,302.4413,213.0862,297.3281,210.6665,299.7477,205.5533,292.62,212.35" style="stroke:#A80036;stroke-width:1.0;"/><!--MD5=[b1f22f0c97e7f2b556a5a2d67c42ac53]
link 3 to 4--><path d="M229.43,243.12 C197.59,262.31 142.74,295.37 108.95,315.75 " fill="none" id="3-to-4" style="stroke:#A80036;stroke-width:1.0;"/><polygon fill="#A80036" points="104.53,318.41,114.3054,317.2095,108.8175,315.8375,110.1895,310.3496,104.53,318.41" style="stroke:#A80036;stroke-width:1.0;"/><!--MD5=[f13c3ab577a688343a149026a232f91b]
link 4 to 6--><path d="M102.79,350.82 C131.36,369.6 179.94,401.55 212.13,422.71 " fill="none" id="4-to-6" style="stroke:#A80036;stroke-width:1.0;"/><polygon fill="#A80036" points="216.36,425.49,211.0376,417.2031,212.1822,422.743,206.6424,423.8876,216.36,425.49" style="stroke:#A80036;stroke-width:1.0;"/><!--MD5=[2dfa168d6698efd82f568a8036f37f42]
link 6 to 7--><path d="M270.16,464.75 C326.59,505.97 460.76,603.98 515.56,644.01 " fill="none" id="6-to-7" style="stroke:#A80036;stroke-width:1.0;"/><polygon fill="#A80036" points="519.68,647.02,514.772,638.4812,515.6425,644.0706,510.053,644.9411,519.68,647.02" style="stroke:#A80036;stroke-width:1.0;"/><!--MD5=[84ae4598095c15fc90310b50c828f4ec]
link 7 to 25--><path d="M592.33,672.9 C704.42,692.83 963.39,738.89 1056.43,755.44 " fill="none" id="7-to-25" style="stroke:#A80036;stroke-width:1.0;"/><polygon fill="#A80036" points="1061.53,756.35,1053.3667,750.84,1056.6068,755.477,1051.9698,758.7171,1061.53,756.35" style="stroke:#A80036;stroke-width:1.0;"/><!--MD5=[c24e363b82b23e873c94edca50a9731f]
link 3 to 5--><path d="M254.96,244.02 C255.48,262.54 256.35,293.05 256.92,313.21 " fill="none" id="3-to-5" style="stroke:#A80036;stroke-width:1.0;"/><polygon fill="#A80036" points="257.07,318.35,260.8113,309.2394,256.9272,313.352,252.8146,309.4679,257.07,318.35" style="stroke:#A80036;stroke-width:1.0;"/><!--MD5=[deed8cab30c10dbe2727e65517d240f0]
link 5 to 6--><path d="M255.69,350.59 C253.57,368.3 250.02,397.94 247.49,419.09 " fill="none" id="5-to-6" style="stroke:#A80036;stroke-width:1.0;"/><polygon fill="#A80036" points="246.86,424.26,251.9096,415.8041,247.4591,419.296,243.9672,414.8456,246.86,424.26" style="stroke:#A80036;stroke-width:1.0;"/><!--MD5=[1bf8d1ae9e1ba925a1a614b64cecbaec]
link 1 to 8--><path d="M978.52,45.06 C967.22,60.78 950.79,83.64 938.64,100.54 " fill="none" id="1-to-8" style="stroke:#A80036;stroke-width:1.0;"/><polygon fill="#A80036" points="935.65,104.7,944.1493,99.7239,938.567,100.6391,937.6519,95.0567,935.65,104.7" style="stroke:#A80036;stroke-width:1.0;"/><!--MD5=[8e33047ddf94993002edbdc6c74c5df1]
link 8 to 17--><path d="M884.47,126.63 C789.1,132.9 538.66,163.35 416.5,311 C390.8,342.06 389.72,391.55 391.77,420.6 " fill="none" id="8-to-17" style="stroke:#A80036;stroke-width:1.0;"/><polygon fill="#A80036" points="392.19,425.77,395.4574,416.4789,391.7901,420.786,387.4831,417.1187,392.19,425.77" style="stroke:#A80036;stroke-width:1.0;"/><!--MD5=[f563b88519aec37ca9b20ceaa35beeb1]
link 17 to 18--><path d="M418.87,461.22 C424.63,464.79 430.77,468.55 436.5,472 C469.94,492.14 508.2,514.51 536.27,530.78 " fill="none" id="17-to-18" style="stroke:#A80036;stroke-width:1.0;"/><polygon fill="#A80036" points="540.68,533.34,534.887,525.375,536.3503,530.8393,530.8859,532.3026,540.68,533.34" style="stroke:#A80036;stroke-width:1.0;"/><!--MD5=[8fa2ef2cb709af82b374dd2230e09fb4]
link 18 to 19--><path d="M635.59,574.02 C700.95,593.95 805.38,625.79 868.6,645.06 " fill="none" id="18-to-19" style="stroke:#A80036;stroke-width:1.0;"/><polygon fill="#A80036" points="873.45,646.54,866.0053,640.092,868.6668,645.0836,863.6751,647.7451,873.45,646.54" style="stroke:#A80036;stroke-width:1.0;"/><!--MD5=[bfa761f3cd287224c6214ee04495bfaa]
link 19 to 25--><path d="M952.15,680.79 C984.7,699.78 1036.32,729.9 1066.45,747.47 " fill="none" id="19-to-25" style="stroke:#A80036;stroke-width:1.0;"/><polygon fill="#A80036" points="1071.1,750.18,1065.3382,742.1924,1066.7801,747.6624,1061.3101,749.1043,1071.1,750.18" style="stroke:#A80036;stroke-width:1.0;"/><!--MD5=[94d95a63a3bd8ceda79afabb6559f4c9]
link 8 to 9--><path d="M922.5,143.06 C922.5,159.61 922.5,184.24 922.5,202.36 " fill="none" id="8-to-9" style="stroke:#A80036;stroke-width:1.0;"/><polygon fill="#A80036" points="922.5,207.76,926.5,198.76,922.5,202.76,918.5,198.76,922.5,207.76" style="stroke:#A80036;stroke-width:1.0;"/><!--MD5=[d626a4137f042c9ed96693ba98ea08de]
link 9 to 10--><path d="M898.31,234.68 C841.25,250.44 696.51,290.41 609.61,314.41 " fill="none" id="9-to-10" style="stroke:#A80036;stroke-width:1.0;"/><polygon fill="#A80036" points="604.74,315.76,614.4798,317.2217,609.5598,314.4299,612.3516,309.5099,604.74,315.76" style="stroke:#A80036;stroke-width:1.0;"/><!--MD5=[ec143eb54b8ec3c64add95129ee53470]
link 10 to 11--><path d="M547.96,357.98 C553.23,373.87 560.36,395.37 566.18,412.9 " fill="none" id="10-to-11" style="stroke:#A80036;stroke-width:1.0;"/><polygon fill="#A80036" points="567.78,417.73,568.7464,407.9287,566.2074,412.9837,561.1524,410.4448,567.78,417.73" style="stroke:#A80036;stroke-width:1.0;"/><!--MD5=[14355ef86b22490699dab9899781b106]
link 11 to 18--><path d="M576.5,472.14 C576.5,488.66 576.5,509.97 576.5,526.71 " fill="none" id="11-to-18" style="stroke:#A80036;stroke-width:1.0;"/><polygon fill="#A80036" points="576.5,531.75,580.5,522.75,576.5,526.75,572.5,522.75,576.5,531.75" style="stroke:#A80036;stroke-width:1.0;"/><!--MD5=[1c5b537ce0835b9fede8b4ab63c9b3d9]
link 10 to 16--><path d="M603.58,353.42 C684.13,376.29 820.85,415.13 885.94,433.62 " fill="none" id="10-to-16" style="stroke:#A80036;stroke-width:1.0;"/><polygon fill="#A80036" points="890.88,435.02,883.3029,428.7281,886.0676,433.6634,881.1323,436.428,890.88,435.02" style="stroke:#A80036;stroke-width:1.0;"/><!--MD5=[91a3f9c1de6774297cb82aade73d294b]
link 16 to 19--><path d="M922.5,460.81 C922.5,497.55 922.5,593.09 922.5,637.79 " fill="none" id="16-to-19" style="stroke:#A80036;stroke-width:1.0;"/><polygon fill="#A80036" points="922.5,642.98,926.5,633.98,922.5,637.98,918.5,633.98,922.5,642.98" style="stroke:#A80036;stroke-width:1.0;"/><!--MD5=[3e723c4b00c412d4a499b679d1d618de]
link 9 to 12--><path d="M898.31,242.67 C866.22,262.12 809.74,296.37 776.05,316.79 " fill="none" id="9-to-12" style="stroke:#A80036;stroke-width:1.0;"/><polygon fill="#A80036" points="771.66,319.46,781.4276,318.1973,775.931,316.8603,777.268,311.3637,771.66,319.46" style="stroke:#A80036;stroke-width:1.0;"/><!--MD5=[7b671297cb06276e30a77d029caf2bee]
link 12 to 16--><path d="M771.25,349.68 C803.95,370.08 864.04,407.54 897.8,428.6 " fill="none" id="12-to-16" style="stroke:#A80036;stroke-width:1.0;"/><polygon fill="#A80036" points="902.18,431.33,896.6557,423.1764,897.936,428.6864,892.4259,429.9668,902.18,431.33" style="stroke:#A80036;stroke-width:1.0;"/><!--MD5=[a871683a4bc19bc6ac77089d4802e7ba]
link 9 to 13--><path d="M922.5,246.38 C922.5,264.83 922.5,293.23 922.5,312.55 " fill="none" id="9-to-13" style="stroke:#A80036;stroke-width:1.0;"/><polygon fill="#A80036" points="922.5,317.74,926.5,308.74,922.5,312.74,918.5,308.74,922.5,317.74" style="stroke:#A80036;stroke-width:1.0;"/><!--MD5=[d3d446dc34180abf0e537dc58c91fbaa]
link 13 to 16--><path d="M922.5,351.05 C922.5,370.28 922.5,403.05 922.5,424.1 " fill="none" id="13-to-16" style="stroke:#A80036;stroke-width:1.0;"/><polygon fill="#A80036" points="922.5,429.18,926.5,420.18,922.5,424.18,918.5,420.18,922.5,429.18" style="stroke:#A80036;stroke-width:1.0;"/><!--MD5=[8b644f42c0b7993d153216bf3c5ff3de]
link 9 to 14--><path d="M946.7,243.57 C977.36,263.29 1029.95,297.12 1061.14,317.19 " fill="none" id="9-to-14" style="stroke:#A80036;stroke-width:1.0;"/><polygon fill="#A80036" points="1065.59,320.05,1060.2022,311.8055,1061.3906,317.3361,1055.86,318.5245,1065.59,320.05" style="stroke:#A80036;stroke-width:1.0;"/><!--MD5=[da7fbfb66ea83d65ce70524eb056452d]
link 14 to 16--><path d="M1066.06,349.02 C1035.57,369.19 978.33,407.06 946.1,428.38 " fill="none" id="14-to-16" style="stroke:#A80036;stroke-width:1.0;"/><polygon fill="#A80036" points="941.92,431.15,951.6338,429.5244,946.0912,428.393,947.2226,422.8504,941.92,431.15" style="stroke:#A80036;stroke-width:1.0;"/><!--MD5=[e48994f91cbc1af723667588655f305d]
link 9 to 15--><path d="M946.51,235.84 C1000.91,253.61 1134.14,297.13 1202.9,319.59 " fill="none" id="9-to-15" style="stroke:#A80036;stroke-width:1.0;"/><polygon fill="#A80036" points="1207.74,321.17,1200.4309,314.5687,1202.9881,319.6146,1197.9422,322.1718,1207.74,321.17" style="stroke:#A80036;stroke-width:1.0;"/><!--MD5=[4dca66fb0d9cfb8b0ca9b77e0e08f996]
link 15 to 16--><path d="M1208.45,347.95 C1145.43,369.12 1018.26,411.83 957.01,432.41 " fill="none" id="15-to-16" style="stroke:#A80036;stroke-width:1.0;"/><polygon fill="#A80036" points="952.01,434.09,961.8148,435.0209,956.7505,432.5003,959.2712,427.4361,952.01,434.09" style="stroke:#A80036;stroke-width:1.0;"/><!--MD5=[1213dbae1c6e58bf23c81b97706859b2]
link 1 to 20--><path d="M1022.84,40.55 C1060.43,56.81 1123.79,84.21 1167.07,102.92 " fill="none" id="1-to-20" style="stroke:#A80036;stroke-width:1.0;"/><polygon fill="#A80036" points="1171.72,104.93,1165.0423,97.6906,1167.1295,102.9484,1161.8717,105.0355,1171.72,104.93" style="stroke:#A80036;stroke-width:1.0;"/><!--MD5=[a962efebb64c98b2e39cdffe636ca03a]
link 20 to 21--><path d="M1239.63,143.23 C1283.09,175.93 1365.5,249.06 1365.5,333.5 C1365.5,333.5 1365.5,333.5 1365.5,446 C1365.5,520.02 1314.52,595.01 1283.27,634.03 " fill="none" id="20-to-21" style="stroke:#A80036;stroke-width:1.0;"/><polygon fill="#A80036" points="1279.94,638.15,1288.7099,633.6679,1283.0843,634.2624,1282.4898,628.6369,1279.94,638.15" style="stroke:#A80036;stroke-width:1.0;"/><!--MD5=[2ce69115481899e8e9a87b9c5b32a2d8]
link 21 to 25--><path d="M1221.57,685.49 C1188.82,704.48 1142.5,731.35 1114.59,747.53 " fill="none" id="21-to-25" style="stroke:#A80036;stroke-width:1.0;"/><polygon fill="#A80036" points="1109.94,750.23,1119.7341,749.1926,1114.2697,747.7293,1115.733,742.265,1109.94,750.23" style="stroke:#A80036;stroke-width:1.0;"/><!--MD5=[e74f06d6ee77c9e7bbdc461d6ae3ede8]
link 1 to 22--><path d="M1022.74,32.3 C1116.02,48.12 1393.14,95.12 1507.4,114.5 " fill="none" id="1-to-22" style="stroke:#A80036;stroke-width:1.0;"/><polygon fill="#A80036" points="1512.38,115.35,1504.1831,109.8901,1507.4515,114.5072,1502.8345,117.7757,1512.38,115.35" style="stroke:#A80036;stroke-width:1.0;"/><!--MD5=[39b157e93396464e046a0700ff4ab03e]
link 22 to 23--><path d="M1593.08,143.06 C1625.71,159.62 1674.25,184.26 1709.95,202.38 " fill="none" id="22-to-23" style="stroke:#A80036;stroke-width:1.0;"/><polygon fill="#A80036" points="1714.68,204.78,1708.4774,197.1296,1710.2251,202.5097,1704.845,204.2574,1714.68,204.78" style="stroke:#A80036;stroke-width:1.0;"/><!--MD5=[b7d062ec7aa1e52dd64e861d2a2308e8]
link 23 to 24--><path d="M1743.56,250.92 C1709.11,311.96 1615.59,477.66 1583.49,534.53 " fill="none" id="23-to-24" style="stroke:#A80036;stroke-width:1.0;"/><polygon fill="#A80036" points="1580.93,539.06,1588.8351,533.1855,1583.3861,534.7048,1581.8667,529.2558,1580.93,539.06" style="stroke:#A80036;stroke-width:1.0;"/><!--MD5=[1469ea59240d0cff0612b1bc3d9f084d]
link 24 to 25--><path d="M1555.88,570.96 C1524.86,598.11 1455.07,655.55 1386.5,687 C1297.43,727.86 1182.59,748.56 1125.69,756.91 " fill="none" id="24-to-25" style="stroke:#A80036;stroke-width:1.0;"/><polygon fill="#A80036" points="1120.7,757.63,1130.186,760.2788,1125.6469,756.9029,1129.0227,752.3638,1120.7,757.63" style="stroke:#A80036;stroke-width:1.0;"/><!--MD5=[df5ce7670e6a53a714c1f1b00ebb3ca2]
@startuml
rectangle "夜ご飯" as 1
rectangle "みそ汁" as 2
usecase "だし汁を沸かす" as 3
usecase "わかめを入れる" as 4
usecase "沸騰したら火を止める" as 6
usecase "味噌を溶かす" as 7
usecase "完成" as 25
usecase "ネギを入れる" as 5
rectangle "生姜焼き" as 8
rectangle "豚肉" as 17
usecase "薄く焼き目が付くまで焼く" as 18
usecase "タレと絡めて炒める" as 19
rectangle "タレ" as 9
usecase "生姜ひとかけの3/4をおろす" as 10
usecase "残りの生姜を細切りにして入れる" as 11
usecase "混ぜる" as 16
usecase "醤油大さじ5" as 12
usecase "みりん大さじ3" as 13
usecase "酒大さじ1" as 14
usecase "砂糖大さじ1" as 15
rectangle "キャベツの千切り" as 20
usecase "キャベツを切って盛り付ける" as 21
rectangle "だし巻き卵" as 22
usecase "卵2個とつゆのだしを混ぜる" as 23
note left
つゆのだしは4,5滴でいいかも
end note
usecase "たまごを焼く" as 24

1 - -> 2
2 - -> 3
3 - -> 4
4 - -> 6
6 - -> 7
7 - -> 25
3 - -> 5
5 - -> 6
1 - -> 8
8 - -> 17
17 - -> 18
18 - -> 19
19 - -> 25
8 - -> 9
9 - -> 10
10 - -> 11
11 - -> 18
10 - -> 16
16 - -> 19
9 - -> 12
12 - -> 16
9 - -> 13
13 - -> 16
9 - -> 14
14 - -> 16
9 - -> 15
15 - -> 16
1 - -> 20
20 - -> 21
21 - -> 25
1 - -> 22
22 - -> 23
23 - -> 24
24 - -> 25

@enduml

PlantUML version 1.2022.0(Wed Jan 12 01:16:42 JST 2022)
(GPL source distribution)
Java Runtime: Java(TM) SE Runtime Environment
JVM: Java HotSpot(TM) 64-Bit Server VM
Default Encoding: MS932
Language: ja
Country: JP
--></g></svg>