<?xml version="1.0" encoding="UTF-8" standalone="no"?><svg xmlns="http://www.w3.org/2000/svg" xmlns:xlink="http://www.w3.org/1999/xlink" contentScriptType="application/ecmascript" contentStyleType="text/css" height="779px" preserveAspectRatio="none" style="width:1370px;height:779px;background:#FFFFFF;" version="1.1" viewBox="0 0 1370 779" width="1370px" zoomAndPan="magnify"><defs><filter height="300%" id="fevh7rcurul7s" width="300%" x="-1" y="-1"><feGaussianBlur result="blurOut" stdDeviation="2.0"/><feColorMatrix in="blurOut" result="blurOut2" type="matrix" values="0 0 0 0 0 0 0 0 0 0 0 0 0 0 0 0 0 0 .4 0"/><feOffset dx="4.0" dy="4.0" in="blurOut2" result="blurOut3"/><feBlend in="SourceGraphic" in2="blurOut3" mode="normal"/></filter></defs><g><!--MD5=[13c7745981a6abb6004f7738a8ca5078]
entity 1--><rect fill="#FEFECE" filter="url(#fevh7rcurul7s)" height="37.6094" style="stroke:#000000;stroke-width:1.5;" width="62" x="605.5" y="7"/><text fill="#000000" font-family="sans-serif" font-size="14" lengthAdjust="spacing" textLength="42" x="615.5" y="31.5332">夜ご飯</text><!--MD5=[773709cb2207c097691e7e7d3d2cc787]
entity 2--><rect fill="#FEFECE" filter="url(#fevh7rcurul7s)" height="37.6094" style="stroke:#000000;stroke-width:1.5;" width="62" x="487.5" y="105"/><text fill="#000000" font-family="sans-serif" font-size="14" lengthAdjust="spacing" textLength="42" x="497.5" y="129.5332">みそ汁</text><ellipse cx="257.7427" cy="222.1485" fill="#FEFECE" filter="url(#fevh7rcurul7s)" rx="73.7427" ry="17.1485" style="stroke:#A80036;stroke-width:1.5;"/><text fill="#000000" font-family="sans-serif" font-size="14" lengthAdjust="spacing" textLength="98" x="205.7427" y="226.6651">だし汁を沸かす</text><ellipse cx="79.7427" cy="324.6485" fill="#FEFECE" filter="url(#fevh7rcurul7s)" rx="73.7427" ry="17.1485" style="stroke:#A80036;stroke-width:1.5;"/><text fill="#000000" font-family="sans-serif" font-size="14" lengthAdjust="spacing" textLength="98" x="27.7427" y="329.1651">わかめを入れる</text><ellipse cx="235.3297" cy="435.0659" fill="#FEFECE" filter="url(#fevh7rcurul7s)" rx="90.8297" ry="20.5659" style="stroke:#A80036;stroke-width:1.5;"/><text fill="#000000" font-family="sans-serif" font-size="14" lengthAdjust="spacing" textLength="140" x="165.3297" y="438.7945">沸騰したら火を止める</text><ellipse cx="292.2688" cy="545.1538" fill="#FEFECE" filter="url(#fevh7rcurul7s)" rx="68.7688" ry="16.1538" style="stroke:#A80036;stroke-width:1.5;"/><text fill="#000000" font-family="sans-serif" font-size="14" lengthAdjust="spacing" textLength="84" x="247.2688" y="549.6704">味噌を溶かす</text><ellipse cx="659.2843" cy="752.4517" fill="#FEFECE" filter="url(#fevh7rcurul7s)" rx="31.2843" ry="15.4517" style="stroke:#A80036;stroke-width:1.5;"/><text fill="#000000" font-family="sans-serif" font-size="14" lengthAdjust="spacing" textLength="28" x="645.2843" y="756.1802">完成</text><ellipse cx="257.2688" cy="324.6538" fill="#FEFECE" filter="url(#fevh7rcurul7s)" rx="68.7688" ry="16.1538" style="stroke:#A80036;stroke-width:1.5;"/><text fill="#000000" font-family="sans-serif" font-size="14" lengthAdjust="spacing" textLength="84" x="212.2688" y="329.1704">ネギを入れる</text><!--MD5=[df1cfc51a8f3e60039521c9170723b8d]
entity 8--><rect fill="#FEFECE" filter="url(#fevh7rcurul7s)" height="37.6094" style="stroke:#000000;stroke-width:1.5;" width="76" x="598.5" y="105"/><text fill="#000000" font-family="sans-serif" font-size="14" lengthAdjust="spacing" textLength="56" x="608.5" y="129.5332">生姜焼き</text><!--MD5=[dc00b6f0bfcb3e33cce0c0c30000e56b]
entity 17--><rect fill="#FEFECE" filter="url(#fevh7rcurul7s)" height="37.6094" style="stroke:#000000;stroke-width:1.5;" width="48" x="502.5" y="203"/><text fill="#000000" font-family="sans-serif" font-size="14" lengthAdjust="spacing" textLength="28" x="512.5" y="227.5332">豚肉</text><ellipse cx="555.6901" cy="545.038" fill="#FEFECE" filter="url(#fevh7rcurul7s)" rx="103.1901" ry="23.038" style="stroke:#A80036;stroke-width:1.5;"/><text fill="#000000" font-family="sans-serif" font-size="14" lengthAdjust="spacing" textLength="168" x="471.6901" y="548.7665">薄く焼き目が付くまで焼く</text><ellipse cx="659.3478" cy="652.3696" fill="#FEFECE" filter="url(#fevh7rcurul7s)" rx="84.8478" ry="19.3696" style="stroke:#A80036;stroke-width:1.5;"/><text fill="#000000" font-family="sans-serif" font-size="14" lengthAdjust="spacing" textLength="126" x="596.3478" y="656.0981">タレと絡めて炒める</text><!--MD5=[d25218acdea247ba6571a34297258ee9]
entity 9--><rect fill="#FEFECE" filter="url(#fevh7rcurul7s)" height="37.6094" style="stroke:#000000;stroke-width:1.5;" width="48" x="809.5" y="203"/><text fill="#000000" font-family="sans-serif" font-size="14" lengthAdjust="spacing" textLength="28" x="819.5" y="227.5332">タレ</text><ellipse cx="538.3935" cy="324.5787" fill="#FEFECE" filter="url(#fevh7rcurul7s)" rx="105.8935" ry="23.5787" style="stroke:#A80036;stroke-width:1.5;"/><text fill="#000000" font-family="sans-serif" font-size="14" lengthAdjust="spacing" textLength="174" x="451.3935" y="328.3072">生姜ひとかけの3/4をおろす</text><ellipse cx="555.4113" cy="434.8823" fill="#FEFECE" filter="url(#fevh7rcurul7s)" rx="122.4113" ry="26.8823" style="stroke:#A80036;stroke-width:1.5;"/><text fill="#000000" font-family="sans-serif" font-size="14" lengthAdjust="spacing" textLength="210" x="450.4113" y="438.6108">残りの生姜を細切りにして入れる</text><ellipse cx="868.6838" cy="434.9517" fill="#FEFECE" filter="url(#fevh7rcurul7s)" rx="41.1838" ry="15.4517" style="stroke:#A80036;stroke-width:1.5;"/><text fill="#000000" font-family="sans-serif" font-size="14" lengthAdjust="spacing" textLength="42" x="847.6838" y="438.6802">混ぜる</text><ellipse cx="746.2537" cy="324.2507" fill="#FEFECE" filter="url(#fevh7rcurul7s)" rx="66.7537" ry="15.7507" style="stroke:#A80036;stroke-width:1.5;"/><text fill="#000000" font-family="sans-serif" font-size="14" lengthAdjust="spacing" textLength="78" x="704.2537" y="328.7673">醤油大さじ5</text><ellipse cx="920.5677" cy="324.7135" fill="#FEFECE" filter="url(#fevh7rcurul7s)" rx="71.5677" ry="16.7135" style="stroke:#A80036;stroke-width:1.5;"/><text fill="#000000" font-family="sans-serif" font-size="14" lengthAdjust="spacing" textLength="92" x="871.5677" y="329.2301">みりん大さじ3</text><ellipse cx="1084.7132" cy="324.5613" fill="#FEFECE" filter="url(#fevh7rcurul7s)" rx="57.2132" ry="15.5613" style="stroke:#A80036;stroke-width:1.5;"/><text fill="#000000" font-family="sans-serif" font-size="14" lengthAdjust="spacing" textLength="64" x="1049.7132" y="329.0779">酒大さじ1</text><ellipse cx="1243.2537" cy="324.2507" fill="#FEFECE" filter="url(#fevh7rcurul7s)" rx="66.7537" ry="15.7507" style="stroke:#A80036;stroke-width:1.5;"/><text fill="#000000" font-family="sans-serif" font-size="14" lengthAdjust="spacing" textLength="78" x="1201.2537" y="328.7673">砂糖大さじ1</text><!--MD5=[57f681a101af5b36c45b4d48786b1175]
entity 20--><rect fill="#FEFECE" filter="url(#fevh7rcurul7s)" height="37.6094" style="stroke:#000000;stroke-width:1.5;" width="132" x="1126.5" y="105"/><text fill="#000000" font-family="sans-serif" font-size="14" lengthAdjust="spacing" textLength="112" x="1136.5" y="129.5332">キャベツの千切り</text><ellipse cx="1178.5226" cy="652.3045" fill="#FEFECE" filter="url(#fevh7rcurul7s)" rx="109.5226" ry="24.3045" style="stroke:#A80036;stroke-width:1.5;"/><text fill="#000000" font-family="sans-serif" font-size="14" lengthAdjust="spacing" textLength="182" x="1087.5226" y="656.033">キャベツを切って盛り付ける</text><!--MD5=[0ba0d8a0fd0e641c23f69743a446dfe6]
link 1 to 2--><path d="M614.31,45.06 C594.65,61.05 565.93,84.41 545.06,101.39 " fill="none" id="1-to-2" style="stroke:#A80036;stroke-width:1.0;"/><polygon fill="#A80036" points="541,104.7,550.5074,102.1291,544.8806,101.547,545.4627,95.9202,541,104.7" style="stroke:#A80036;stroke-width:1.0;"/><!--MD5=[eeb69082328d10abd3b14fdeede0d8a3]
link 2 to 3--><path d="M487.28,136.48 C440.61,153.65 352.56,186.04 300.05,205.35 " fill="none" id="2-to-3" style="stroke:#A80036;stroke-width:1.0;"/><polygon fill="#A80036" points="295.08,207.18,304.9082,207.8179,299.771,205.4495,302.1394,200.3123,295.08,207.18" style="stroke:#A80036;stroke-width:1.0;"/><!--MD5=[b1f22f0c97e7f2b556a5a2d67c42ac53]
link 3 to 4--><path d="M230.85,238.05 C198.64,256.23 144.54,286.78 110.5,306 " fill="none" id="3-to-4" style="stroke:#A80036;stroke-width:1.0;"/><polygon fill="#A80036" points="106.04,308.52,115.8442,307.5833,110.3952,306.0639,111.9145,300.6149,106.04,308.52" style="stroke:#A80036;stroke-width:1.0;"/><!--MD5=[f13c3ab577a688343a149026a232f91b]
link 4 to 6--><path d="M101.52,340.82 C128.34,359.47 173.81,391.1 204.25,412.26 " fill="none" id="4-to-6" style="stroke:#A80036;stroke-width:1.0;"/><polygon fill="#A80036" points="208.62,415.31,203.5093,406.891,204.5132,412.458,198.9461,413.4619,208.62,415.31" style="stroke:#A80036;stroke-width:1.0;"/><!--MD5=[2dfa168d6698efd82f568a8036f37f42]
link 6 to 7--><path d="M245.82,455.56 C256.11,475.06 271.83,504.85 282.14,524.37 " fill="none" id="6-to-7" style="stroke:#A80036;stroke-width:1.0;"/><polygon fill="#A80036" points="284.64,529.1,283.9539,519.2751,282.296,524.6835,276.8875,523.0255,284.64,529.1" style="stroke:#A80036;stroke-width:1.0;"/><!--MD5=[1ec7270538a1b36ac503026841d4a786]
link 7 to 22--><path d="M317.44,559.96 C384.55,597.54 568.43,700.51 635.02,737.79 " fill="none" id="7-to-22" style="stroke:#A80036;stroke-width:1.0;"/><polygon fill="#A80036" points="639.61,740.36,633.7158,732.4696,635.2487,737.9148,629.8035,739.4477,639.61,740.36" style="stroke:#A80036;stroke-width:1.0;"/><!--MD5=[c24e363b82b23e873c94edca50a9731f]
link 3 to 5--><path d="M257.5,239.15 C257.5,256.59 257.5,284.43 257.5,303.31 " fill="none" id="3-to-5" style="stroke:#A80036;stroke-width:1.0;"/><polygon fill="#A80036" points="257.5,308.38,261.5,299.38,257.5,303.38,253.5,299.38,257.5,308.38" style="stroke:#A80036;stroke-width:1.0;"/><!--MD5=[deed8cab30c10dbe2727e65517d240f0]
link 5 to 6--><path d="M254.44,340.59 C250.83,358.38 244.79,388.19 240.5,409.35 " fill="none" id="5-to-6" style="stroke:#A80036;stroke-width:1.0;"/><polygon fill="#A80036" points="239.5,414.26,245.1964,406.2256,240.4861,409.3582,237.3535,404.6479,239.5,414.26" style="stroke:#A80036;stroke-width:1.0;"/><!--MD5=[1bf8d1ae9e1ba925a1a614b64cecbaec]
link 1 to 8--><path d="M636.5,45.06 C636.5,60.51 636.5,82.86 636.5,99.67 " fill="none" id="1-to-8" style="stroke:#A80036;stroke-width:1.0;"/><polygon fill="#A80036" points="636.5,104.7,640.5,95.7,636.5,99.7,632.5,95.7,636.5,104.7" style="stroke:#A80036;stroke-width:1.0;"/><!--MD5=[8e33047ddf94993002edbdc6c74c5df1]
link 8 to 17--><path d="M615.81,143.06 C597.49,159.05 570.71,182.41 551.26,199.39 " fill="none" id="8-to-17" style="stroke:#A80036;stroke-width:1.0;"/><polygon fill="#A80036" points="547.47,202.7,556.8835,199.804,551.24,199.4156,551.6284,193.7721,547.47,202.7" style="stroke:#A80036;stroke-width:1.0;"/><!--MD5=[f563b88519aec37ca9b20ceaa35beeb1]
link 17 to 18--><path d="M502.43,231.8 C475.4,243.15 432.93,265.71 414.5,301 C402.66,323.68 388.29,415 415.5,462 C432.38,491.15 464.05,510.97 493,523.8 " fill="none" id="17-to-18" style="stroke:#A80036;stroke-width:1.0;"/><polygon fill="#A80036" points="497.62,525.8,490.9505,518.5531,493.0317,523.8132,487.7716,525.8943,497.62,525.8" style="stroke:#A80036;stroke-width:1.0;"/><!--MD5=[8fa2ef2cb709af82b374dd2230e09fb4]
link 18 to 19--><path d="M576.8,567.6 C594.48,585.54 619.53,610.96 637.42,629.11 " fill="none" id="18-to-19" style="stroke:#A80036;stroke-width:1.0;"/><polygon fill="#A80036" points="641.35,633.09,637.8702,623.8764,637.836,629.5331,632.1792,629.4988,641.35,633.09" style="stroke:#A80036;stroke-width:1.0;"/><!--MD5=[4a62ecd42fc440dbc194c20712f7d281]
link 19 to 22--><path d="M659.5,672.4 C659.5,689.43 659.5,714.4 659.5,731.71 " fill="none" id="19-to-22" style="stroke:#A80036;stroke-width:1.0;"/><polygon fill="#A80036" points="659.5,736.82,663.5,727.82,659.5,731.82,655.5,727.82,659.5,736.82" style="stroke:#A80036;stroke-width:1.0;"/><!--MD5=[94d95a63a3bd8ceda79afabb6559f4c9]
link 8 to 9--><path d="M673.55,143.06 C711.63,161.61 770.12,190.11 804.81,207.02 " fill="none" id="8-to-9" style="stroke:#A80036;stroke-width:1.0;"/><polygon fill="#A80036" points="809.34,209.23,802.992,201.6998,804.8425,207.0455,799.4968,208.8959,809.34,209.23" style="stroke:#A80036;stroke-width:1.0;"/><!--MD5=[d626a4137f042c9ed96693ba98ea08de]
link 9 to 10--><path d="M809.36,231.22 C763.89,246.71 664.32,280.64 599.4,302.75 " fill="none" id="9-to-10" style="stroke:#A80036;stroke-width:1.0;"/><polygon fill="#A80036" points="594.4,304.46,604.2097,305.3378,599.1319,302.8446,601.625,297.7668,594.4,304.46" style="stroke:#A80036;stroke-width:1.0;"/><!--MD5=[ec143eb54b8ec3c64add95129ee53470]
link 10 to 11--><path d="M542.06,348.25 C544.53,364.01 547.86,385.22 550.58,402.59 " fill="none" id="10-to-11" style="stroke:#A80036;stroke-width:1.0;"/><polygon fill="#A80036" points="551.4,407.85,553.9643,398.3408,550.629,402.9098,546.06,399.5745,551.4,407.85" style="stroke:#A80036;stroke-width:1.0;"/><!--MD5=[14355ef86b22490699dab9899781b106]
link 11 to 18--><path d="M555.5,462.14 C555.5,478.66 555.5,499.97 555.5,516.71 " fill="none" id="11-to-18" style="stroke:#A80036;stroke-width:1.0;"/><polygon fill="#A80036" points="555.5,521.75,559.5,512.75,555.5,516.75,551.5,512.75,555.5,521.75" style="stroke:#A80036;stroke-width:1.0;"/><!--MD5=[1c5b537ce0835b9fede8b4ab63c9b3d9]
link 10 to 16--><path d="M595.98,344.4 C664.64,366.97 777.28,404.01 833.82,422.6 " fill="none" id="10-to-16" style="stroke:#A80036;stroke-width:1.0;"/><polygon fill="#A80036" points="838.79,424.23,831.4868,417.6222,834.0395,422.6703,828.9913,425.223,838.79,424.23" style="stroke:#A80036;stroke-width:1.0;"/><!--MD5=[91a3f9c1de6774297cb82aade73d294b]
link 16 to 19--><path d="M855.11,449.81 C819.71,486.31 723.42,585.59 680.57,629.78 " fill="none" id="16-to-19" style="stroke:#A80036;stroke-width:1.0;"/><polygon fill="#A80036" points="677.08,633.37,686.2066,629.6679,680.5507,629.7708,680.4478,624.1149,677.08,633.37" style="stroke:#A80036;stroke-width:1.0;"/><!--MD5=[3e723c4b00c412d4a499b679d1d618de]
link 9 to 12--><path d="M817.54,241.43 C801.95,259.45 778.32,286.74 762.66,304.84 " fill="none" id="9-to-12" style="stroke:#A80036;stroke-width:1.0;"/><polygon fill="#A80036" points="759.25,308.78,768.1689,304.6024,762.5263,305.003,762.1257,299.3603,759.25,308.78" style="stroke:#A80036;stroke-width:1.0;"/><!--MD5=[7b671297cb06276e30a77d029caf2bee]
link 12 to 16--><path d="M762.95,340.13 C785.33,360.04 825.3,395.58 849.11,416.76 " fill="none" id="12-to-16" style="stroke:#A80036;stroke-width:1.0;"/><polygon fill="#A80036" points="853.08,420.28,848.9938,411.3188,849.3367,416.9653,843.6902,417.3082,853.08,420.28" style="stroke:#A80036;stroke-width:1.0;"/><!--MD5=[a871683a4bc19bc6ac77089d4802e7ba]
link 9 to 13--><path d="M849.46,241.43 C864.87,259.24 888.13,286.1 903.79,304.2 " fill="none" id="9-to-13" style="stroke:#A80036;stroke-width:1.0;"/><polygon fill="#A80036" points="907.21,308.14,904.3519,298.715,903.9408,304.3568,898.2989,303.9457,907.21,308.14" style="stroke:#A80036;stroke-width:1.0;"/><!--MD5=[d3d446dc34180abf0e537dc58c91fbaa]
link 13 to 16--><path d="M913.05,341.05 C903.7,360.55 887.68,393.97 877.61,414.98 " fill="none" id="13-to-16" style="stroke:#A80036;stroke-width:1.0;"/><polygon fill="#A80036" points="875.44,419.52,882.9295,413.1241,877.5958,415.0086,875.7113,409.6749,875.44,419.52" style="stroke:#A80036;stroke-width:1.0;"/><!--MD5=[8b644f42c0b7993d153216bf3c5ff3de]
link 9 to 14--><path d="M857.57,232.64 C902.02,250.44 997.2,288.55 1049.05,309.31 " fill="none" id="9-to-14" style="stroke:#A80036;stroke-width:1.0;"/><polygon fill="#A80036" points="1053.93,311.26,1047.0593,304.2036,1049.2876,309.403,1044.0881,311.6314,1053.93,311.26" style="stroke:#A80036;stroke-width:1.0;"/><!--MD5=[da7fbfb66ea83d65ce70524eb056452d]
link 14 to 16--><path d="M1058.87,338.37 C1018.2,358.8 939.15,398.51 896.84,419.77 " fill="none" id="14-to-16" style="stroke:#A80036;stroke-width:1.0;"/><polygon fill="#A80036" points="892.11,422.14,901.9481,421.6802,896.5793,419.8982,898.3613,414.5294,892.11,422.14" style="stroke:#A80036;stroke-width:1.0;"/><!--MD5=[e48994f91cbc1af723667588655f305d]
link 9 to 15--><path d="M857.68,228.55 C911.84,241.04 1046.96,272.47 1159.5,301 C1171.41,304.02 1184.23,307.39 1196.19,310.59 " fill="none" id="9-to-15" style="stroke:#A80036;stroke-width:1.0;"/><polygon fill="#A80036" points="1201.26,311.95,1193.6094,305.7478,1196.4319,310.6501,1191.5296,313.4727,1201.26,311.95" style="stroke:#A80036;stroke-width:1.0;"/><!--MD5=[4dca66fb0d9cfb8b0ca9b77e0e08f996]
link 15 to 16--><path d="M1202.65,337.32 C1128.97,358.64 974.93,403.2 904.75,423.51 " fill="none" id="15-to-16" style="stroke:#A80036;stroke-width:1.0;"/><polygon fill="#A80036" points="899.84,424.93,909.5963,426.2768,904.6438,423.5432,907.3774,418.5907,899.84,424.93" style="stroke:#A80036;stroke-width:1.0;"/><!--MD5=[1213dbae1c6e58bf23c81b97706859b2]
link 1 to 20--><path d="M667.58,32.37 C754.09,47.3 999.28,89.64 1121.47,110.74 " fill="none" id="1-to-20" style="stroke:#A80036;stroke-width:1.0;"/><polygon fill="#A80036" points="1126.48,111.6,1118.3012,106.1131,1121.5544,110.7409,1116.9266,113.9941,1126.48,111.6" style="stroke:#A80036;stroke-width:1.0;"/><!--MD5=[a962efebb64c98b2e39cdffe636ca03a]
link 20 to 21--><path d="M1225.07,143.16 C1274.68,173.52 1363.5,239.58 1363.5,323.5 C1363.5,323.5 1363.5,323.5 1363.5,436 C1363.5,522.57 1276.49,591.75 1221.81,626.68 " fill="none" id="20-to-21" style="stroke:#A80036;stroke-width:1.0;"/><polygon fill="#A80036" points="1217.28,629.55,1227.0252,628.1248,1221.5071,626.8795,1222.7524,621.3614,1217.28,629.55" style="stroke:#A80036;stroke-width:1.0;"/><!--MD5=[10573823e325f3c956855c39ac116b28]
link 21 to 22--><path d="M1096.84,668.92 C981.19,690.76 774.76,729.74 693.61,745.06 " fill="none" id="21-to-22" style="stroke:#A80036;stroke-width:1.0;"/><polygon fill="#A80036" points="688.44,746.03,698.0262,748.2894,693.3531,745.1017,696.5408,740.4285,688.44,746.03" style="stroke:#A80036;stroke-width:1.0;"/><!--MD5=[3ec53aca288531d86db8f75ece4b6f9b]
@startuml
rectangle "夜ご飯" as 1
rectangle "みそ汁" as 2
usecase "だし汁を沸かす" as 3
usecase "わかめを入れる" as 4
usecase "沸騰したら火を止める" as 6
usecase "味噌を溶かす" as 7
usecase "完成" as 22
usecase "ネギを入れる" as 5
rectangle "生姜焼き" as 8
rectangle "豚肉" as 17
usecase "薄く焼き目が付くまで焼く" as 18
usecase "タレと絡めて炒める" as 19
rectangle "タレ" as 9
usecase "生姜ひとかけの3/4をおろす" as 10
usecase "残りの生姜を細切りにして入れる" as 11
usecase "混ぜる" as 16
usecase "醤油大さじ5" as 12
usecase "みりん大さじ3" as 13
usecase "酒大さじ1" as 14
usecase "砂糖大さじ1" as 15
rectangle "キャベツの千切り" as 20
usecase "キャベツを切って盛り付ける" as 21

1 - -> 2
2 - -> 3
3 - -> 4
4 - -> 6
6 - -> 7
7 - -> 22
3 - -> 5
5 - -> 6
1 - -> 8
8 - -> 17
17 - -> 18
18 - -> 19
19 - -> 22
8 - -> 9
9 - -> 10
10 - -> 11
11 - -> 18
10 - -> 16
16 - -> 19
9 - -> 12
12 - -> 16
9 - -> 13
13 - -> 16
9 - -> 14
14 - -> 16
9 - -> 15
15 - -> 16
1 - -> 20
20 - -> 21
21 - -> 22

@enduml

PlantUML version 1.2022.0(Wed Jan 12 01:16:42 JST 2022)
(GPL source distribution)
Java Runtime: Java(TM) SE Runtime Environment
JVM: Java HotSpot(TM) 64-Bit Server VM
Default Encoding: MS932
Language: ja
Country: JP
--></g></svg>