<?xml version="1.0" encoding="UTF-8" standalone="no"?><svg xmlns="http://www.w3.org/2000/svg" xmlns:xlink="http://www.w3.org/1999/xlink" contentScriptType="application/ecmascript" contentStyleType="text/css" height="645px" preserveAspectRatio="none" style="width:1119px;height:645px;background:#FFFFFF;" version="1.1" viewBox="0 0 1119 645" width="1119px" zoomAndPan="magnify"><defs><filter height="300%" id="f9w7livyl5ttt" width="300%" x="-1" y="-1"><feGaussianBlur result="blurOut" stdDeviation="2.0"/><feColorMatrix in="blurOut" result="blurOut2" type="matrix" values="0 0 0 0 0 0 0 0 0 0 0 0 0 0 0 0 0 0 .4 0"/><feOffset dx="4.0" dy="4.0" in="blurOut2" result="blurOut3"/><feBlend in="SourceGraphic" in2="blurOut3" mode="normal"/></filter></defs><g><!--MD5=[13c7745981a6abb6004f7738a8ca5078]
entity 1--><rect fill="#FEFECE" filter="url(#f9w7livyl5ttt)" height="37.6094" style="stroke:#000000;stroke-width:1.5;" width="62" x="550.5" y="7"/><text fill="#000000" font-family="sans-serif" font-size="14" lengthAdjust="spacing" textLength="42" x="560.5" y="31.5332">夜ご飯</text><!--MD5=[773709cb2207c097691e7e7d3d2cc787]
entity 2--><rect fill="#FEFECE" filter="url(#f9w7livyl5ttt)" height="37.6094" style="stroke:#000000;stroke-width:1.5;" width="62" x="432.5" y="105"/><text fill="#000000" font-family="sans-serif" font-size="14" lengthAdjust="spacing" textLength="42" x="442.5" y="129.5332">みそ汁</text><ellipse cx="257.7427" cy="222.1485" fill="#FEFECE" filter="url(#f9w7livyl5ttt)" rx="73.7427" ry="17.1485" style="stroke:#A80036;stroke-width:1.5;"/><text fill="#000000" font-family="sans-serif" font-size="14" lengthAdjust="spacing" textLength="98" x="205.7427" y="226.6651">だし汁を沸かす</text><ellipse cx="79.7427" cy="318.1485" fill="#FEFECE" filter="url(#f9w7livyl5ttt)" rx="73.7427" ry="17.1485" style="stroke:#A80036;stroke-width:1.5;"/><text fill="#000000" font-family="sans-serif" font-size="14" lengthAdjust="spacing" textLength="98" x="27.7427" y="322.6651">わかめを入れる</text><ellipse cx="257.3297" cy="419.5659" fill="#FEFECE" filter="url(#f9w7livyl5ttt)" rx="90.8297" ry="20.5659" style="stroke:#A80036;stroke-width:1.5;"/><text fill="#000000" font-family="sans-serif" font-size="14" lengthAdjust="spacing" textLength="140" x="187.3297" y="423.2945">沸騰したら火を止める</text><ellipse cx="368.2688" cy="523.6538" fill="#FEFECE" filter="url(#f9w7livyl5ttt)" rx="68.7688" ry="16.1538" style="stroke:#A80036;stroke-width:1.5;"/><text fill="#000000" font-family="sans-serif" font-size="14" lengthAdjust="spacing" textLength="84" x="323.2688" y="528.1704">味噌を溶かす</text><ellipse cx="581.2843" cy="618.4517" fill="#FEFECE" filter="url(#f9w7livyl5ttt)" rx="31.2843" ry="15.4517" style="stroke:#A80036;stroke-width:1.5;"/><text fill="#000000" font-family="sans-serif" font-size="14" lengthAdjust="spacing" textLength="28" x="567.2843" y="622.1802">完成</text><ellipse cx="257.2688" cy="318.1538" fill="#FEFECE" filter="url(#f9w7livyl5ttt)" rx="68.7688" ry="16.1538" style="stroke:#A80036;stroke-width:1.5;"/><text fill="#000000" font-family="sans-serif" font-size="14" lengthAdjust="spacing" textLength="84" x="212.2688" y="322.6704">ネギを入れる</text><!--MD5=[df1cfc51a8f3e60039521c9170723b8d]
entity 8--><rect fill="#FEFECE" filter="url(#f9w7livyl5ttt)" height="37.6094" style="stroke:#000000;stroke-width:1.5;" width="76" x="543.5" y="105"/><text fill="#000000" font-family="sans-serif" font-size="14" lengthAdjust="spacing" textLength="56" x="553.5" y="129.5332">生姜焼き</text><!--MD5=[50c48f50f23c4505b4e1bf8eb0388b7a]
entity 15--><rect fill="#FEFECE" filter="url(#f9w7livyl5ttt)" height="37.6094" style="stroke:#000000;stroke-width:1.5;" width="48" x="466.5" y="203"/><text fill="#000000" font-family="sans-serif" font-size="14" lengthAdjust="spacing" textLength="28" x="476.5" y="227.5332">豚肉</text><ellipse cx="490.6901" cy="419.538" fill="#FEFECE" filter="url(#f9w7livyl5ttt)" rx="103.1901" ry="23.038" style="stroke:#A80036;stroke-width:1.5;"/><text fill="#000000" font-family="sans-serif" font-size="14" lengthAdjust="spacing" textLength="168" x="406.6901" y="423.2665">薄く焼き目が付くまで焼く</text><ellipse cx="581.3478" cy="523.3696" fill="#FEFECE" filter="url(#f9w7livyl5ttt)" rx="84.8478" ry="19.3696" style="stroke:#A80036;stroke-width:1.5;"/><text fill="#000000" font-family="sans-serif" font-size="14" lengthAdjust="spacing" textLength="126" x="518.3478" y="527.0981">タレと絡めて炒める</text><!--MD5=[d25218acdea247ba6571a34297258ee9]
entity 9--><rect fill="#FEFECE" filter="url(#f9w7livyl5ttt)" height="37.6094" style="stroke:#000000;stroke-width:1.5;" width="48" x="649.5" y="203"/><text fill="#000000" font-family="sans-serif" font-size="14" lengthAdjust="spacing" textLength="28" x="659.5" y="227.5332">タレ</text><ellipse cx="499.2537" cy="317.7507" fill="#FEFECE" filter="url(#f9w7livyl5ttt)" rx="66.7537" ry="15.7507" style="stroke:#A80036;stroke-width:1.5;"/><text fill="#000000" font-family="sans-serif" font-size="14" lengthAdjust="spacing" textLength="78" x="457.2537" y="322.2673">醤油大さじ5</text><ellipse cx="673.6838" cy="419.4517" fill="#FEFECE" filter="url(#f9w7livyl5ttt)" rx="41.1838" ry="15.4517" style="stroke:#A80036;stroke-width:1.5;"/><text fill="#000000" font-family="sans-serif" font-size="14" lengthAdjust="spacing" textLength="42" x="652.6838" y="423.1802">混ぜる</text><ellipse cx="673.5677" cy="318.2135" fill="#FEFECE" filter="url(#f9w7livyl5ttt)" rx="71.5677" ry="16.7135" style="stroke:#A80036;stroke-width:1.5;"/><text fill="#000000" font-family="sans-serif" font-size="14" lengthAdjust="spacing" textLength="92" x="624.5677" y="322.7301">みりん大さじ3</text><ellipse cx="837.7132" cy="318.0613" fill="#FEFECE" filter="url(#f9w7livyl5ttt)" rx="57.2132" ry="15.5613" style="stroke:#A80036;stroke-width:1.5;"/><text fill="#000000" font-family="sans-serif" font-size="14" lengthAdjust="spacing" textLength="64" x="802.7132" y="322.5779">酒大さじ1</text><ellipse cx="996.2537" cy="317.7507" fill="#FEFECE" filter="url(#f9w7livyl5ttt)" rx="66.7537" ry="15.7507" style="stroke:#A80036;stroke-width:1.5;"/><text fill="#000000" font-family="sans-serif" font-size="14" lengthAdjust="spacing" textLength="78" x="954.2537" y="322.2673">砂糖大さじ1</text><!--MD5=[7c356ee5fd76ea688127ca96320d15b9]
entity 18--><rect fill="#FEFECE" filter="url(#f9w7livyl5ttt)" height="37.6094" style="stroke:#000000;stroke-width:1.5;" width="132" x="947.5" y="105"/><text fill="#000000" font-family="sans-serif" font-size="14" lengthAdjust="spacing" textLength="112" x="957.5" y="129.5332">キャベツの千切り</text><ellipse cx="987.5226" cy="419.3045" fill="#FEFECE" filter="url(#f9w7livyl5ttt)" rx="109.5226" ry="24.3045" style="stroke:#A80036;stroke-width:1.5;"/><text fill="#000000" font-family="sans-serif" font-size="14" lengthAdjust="spacing" textLength="182" x="896.5226" y="423.033">キャベツを切って盛り付ける</text><!--MD5=[0ba0d8a0fd0e641c23f69743a446dfe6]
link 1 to 2--><path d="M559.31,45.06 C539.65,61.05 510.93,84.41 490.06,101.39 " fill="none" id="1-to-2" style="stroke:#A80036;stroke-width:1.0;"/><polygon fill="#A80036" points="486,104.7,495.5074,102.1291,489.8806,101.547,490.4627,95.9202,486,104.7" style="stroke:#A80036;stroke-width:1.0;"/><!--MD5=[eeb69082328d10abd3b14fdeede0d8a3]
link 2 to 3--><path d="M432.21,139.58 C394.9,156.97 332.66,185.98 293.41,204.26 " fill="none" id="2-to-3" style="stroke:#A80036;stroke-width:1.0;"/><polygon fill="#A80036" points="288.74,206.44,298.5876,206.2826,293.276,204.3365,295.2221,199.025,288.74,206.44" style="stroke:#A80036;stroke-width:1.0;"/><!--MD5=[b1f22f0c97e7f2b556a5a2d67c42ac53]
link 3 to 4--><path d="M229.3,237.89 C197.53,254.67 145.96,281.9 112.39,299.63 " fill="none" id="3-to-4" style="stroke:#A80036;stroke-width:1.0;"/><polygon fill="#A80036" points="107.57,302.18,117.3975,301.5319,111.9955,299.853,113.6744,294.451,107.57,302.18" style="stroke:#A80036;stroke-width:1.0;"/><!--MD5=[f13c3ab577a688343a149026a232f91b]
link 4 to 6--><path d="M106.15,333.9 C136.5,350.86 186.29,378.7 220.42,397.77 " fill="none" id="4-to-6" style="stroke:#A80036;stroke-width:1.0;"/><polygon fill="#A80036" points="224.92,400.29,219.0148,392.4078,220.5553,397.8509,215.1122,399.3914,224.92,400.29" style="stroke:#A80036;stroke-width:1.0;"/><!--MD5=[2dfa168d6698efd82f568a8036f37f42]
link 6 to 7--><path d="M278.38,439.69 C298.51,458.19 328.77,485.99 348.58,504.19 " fill="none" id="6-to-7" style="stroke:#A80036;stroke-width:1.0;"/><polygon fill="#A80036" points="352.39,507.7,348.468,498.6657,348.7078,504.3175,343.056,504.5573,352.39,507.7" style="stroke:#A80036;stroke-width:1.0;"/><!--MD5=[81f8b7a467ffb2f75450b2bfecfeb3c4]
link 7 to 20--><path d="M399.47,538.02 C441.05,556.18 514.27,588.15 554,605.49 " fill="none" id="7-to-20" style="stroke:#A80036;stroke-width:1.0;"/><polygon fill="#A80036" points="558.67,607.53,552.0279,600.258,554.0892,605.5259,548.8213,607.5873,558.67,607.53" style="stroke:#A80036;stroke-width:1.0;"/><!--MD5=[c24e363b82b23e873c94edca50a9731f]
link 3 to 5--><path d="M257.5,239.37 C257.5,255.3 257.5,279.52 257.5,296.67 " fill="none" id="3-to-5" style="stroke:#A80036;stroke-width:1.0;"/><polygon fill="#A80036" points="257.5,301.75,261.5,292.75,257.5,296.75,253.5,292.75,257.5,301.75" style="stroke:#A80036;stroke-width:1.0;"/><!--MD5=[deed8cab30c10dbe2727e65517d240f0]
link 5 to 6--><path d="M257.5,334.11 C257.5,349.91 257.5,374.97 257.5,393.68 " fill="none" id="5-to-6" style="stroke:#A80036;stroke-width:1.0;"/><polygon fill="#A80036" points="257.5,398.78,261.5,389.78,257.5,393.78,253.5,389.78,257.5,398.78" style="stroke:#A80036;stroke-width:1.0;"/><!--MD5=[1bf8d1ae9e1ba925a1a614b64cecbaec]
link 1 to 8--><path d="M581.5,45.06 C581.5,60.51 581.5,82.86 581.5,99.67 " fill="none" id="1-to-8" style="stroke:#A80036;stroke-width:1.0;"/><polygon fill="#A80036" points="581.5,104.7,585.5,95.7,581.5,99.7,577.5,95.7,581.5,104.7" style="stroke:#A80036;stroke-width:1.0;"/><!--MD5=[6353b9a8ec9d0db1a9169eec8c8d2382]
link 8 to 15--><path d="M564.38,143.06 C549.35,158.91 527.44,182.03 511.39,198.97 " fill="none" id="8-to-15" style="stroke:#A80036;stroke-width:1.0;"/><polygon fill="#A80036" points="507.85,202.7,516.9464,198.9244,511.2915,199.0729,511.143,193.418,507.85,202.7" style="stroke:#A80036;stroke-width:1.0;"/><!--MD5=[4dca66fb0d9cfb8b0ca9b77e0e08f996]
link 15 to 16--><path d="M466.13,239.45 C438.78,260.14 400,297.53 414.5,335 C423.37,357.92 441.78,378.42 458.26,393.37 " fill="none" id="15-to-16" style="stroke:#A80036;stroke-width:1.0;"/><polygon fill="#A80036" points="462.4,397.05,458.3308,388.0811,458.663,393.7282,453.0159,394.0604,462.4,397.05" style="stroke:#A80036;stroke-width:1.0;"/><!--MD5=[ba2e5fa2c698e5c9043853b0c770153c]
link 16 to 17--><path d="M509.8,442.13 C525.13,459.31 546.47,483.24 561.88,500.51 " fill="none" id="16-to-17" style="stroke:#A80036;stroke-width:1.0;"/><polygon fill="#A80036" points="565.27,504.31,562.2603,494.9323,561.9402,500.5801,556.2924,500.2599,565.27,504.31" style="stroke:#A80036;stroke-width:1.0;"/><!--MD5=[c1629a48ab05468f4ab0261c554f4285]
link 17 to 20--><path d="M581.5,543.32 C581.5,559.15 581.5,581.71 581.5,597.79 " fill="none" id="17-to-20" style="stroke:#A80036;stroke-width:1.0;"/><polygon fill="#A80036" points="581.5,602.98,585.5,593.98,581.5,597.98,577.5,593.98,581.5,602.98" style="stroke:#A80036;stroke-width:1.0;"/><!--MD5=[94d95a63a3bd8ceda79afabb6559f4c9]
link 8 to 9--><path d="M598.8,143.06 C614,158.91 636.15,182.03 652.38,198.97 " fill="none" id="8-to-9" style="stroke:#A80036;stroke-width:1.0;"/><polygon fill="#A80036" points="655.96,202.7,652.6112,193.4379,652.4967,199.0936,646.841,198.9791,655.96,202.7" style="stroke:#A80036;stroke-width:1.0;"/><!--MD5=[d626a4137f042c9ed96693ba98ea08de]
link 9 to 10--><path d="M649.31,236.07 C618.03,252.97 563.56,282.39 529.63,300.72 " fill="none" id="9-to-10" style="stroke:#A80036;stroke-width:1.0;"/><polygon fill="#A80036" points="525.19,303.12,535.0084,302.3465,529.5855,300.7367,531.1952,295.3138,525.19,303.12" style="stroke:#A80036;stroke-width:1.0;"/><!--MD5=[ca35cbe882edf92296cff7254034d024]
link 10 to 14--><path d="M524.06,333.04 C556.65,351.68 613.95,384.44 647.33,403.53 " fill="none" id="10-to-14" style="stroke:#A80036;stroke-width:1.0;"/><polygon fill="#A80036" points="652.07,406.25,646.2573,398.2994,647.7341,403.7601,642.2734,405.2369,652.07,406.25" style="stroke:#A80036;stroke-width:1.0;"/><!--MD5=[fa8e66630fac138f7b6d4db7875c6825]
link 14 to 17--><path d="M660.71,434.68 C645.34,451.72 619.39,480.5 601.39,500.44 " fill="none" id="14-to-17" style="stroke:#A80036;stroke-width:1.0;"/><polygon fill="#A80036" points="597.91,504.31,606.9124,500.3153,601.2627,500.6006,600.9774,494.951,597.91,504.31" style="stroke:#A80036;stroke-width:1.0;"/><!--MD5=[3a9de236b82b3780bb92df019dffa873]
link 9 to 11--><path d="M673.5,241.12 C673.5,256.85 673.5,279.61 673.5,296.09 " fill="none" id="9-to-11" style="stroke:#A80036;stroke-width:1.0;"/><polygon fill="#A80036" points="673.5,301.43,677.5,292.43,673.5,296.43,669.5,292.43,673.5,301.43" style="stroke:#A80036;stroke-width:1.0;"/><!--MD5=[0955c5b0f861334d3399d7abf2a63ee8]
link 11 to 14--><path d="M673.5,334.55 C673.5,351.83 673.5,379.8 673.5,398.65 " fill="none" id="11-to-14" style="stroke:#A80036;stroke-width:1.0;"/><polygon fill="#A80036" points="673.5,403.71,677.5,394.71,673.5,398.71,669.5,394.71,673.5,403.71" style="stroke:#A80036;stroke-width:1.0;"/><!--MD5=[3e723c4b00c412d4a499b679d1d618de]
link 9 to 12--><path d="M697.7,236.87 C727.59,254 778.34,283.09 809.77,301.11 " fill="none" id="9-to-12" style="stroke:#A80036;stroke-width:1.0;"/><polygon fill="#A80036" points="814.26,303.68,808.4473,295.7294,809.9241,301.1901,804.4634,302.6669,814.26,303.68" style="stroke:#A80036;stroke-width:1.0;"/><!--MD5=[f674991f2698b6f0f6ed41ad466cb69c]
link 12 to 14--><path d="M815.38,332.42 C785.05,350.82 730.68,383.81 698.77,403.17 " fill="none" id="12-to-14" style="stroke:#A80036;stroke-width:1.0;"/><polygon fill="#A80036" points="694.23,405.92,703.9976,404.6573,698.501,403.3203,699.838,397.8237,694.23,405.92" style="stroke:#A80036;stroke-width:1.0;"/><!--MD5=[a871683a4bc19bc6ac77089d4802e7ba]
link 9 to 13--><path d="M697.51,229.99 C751.2,245.61 881.66,283.58 951.16,303.8 " fill="none" id="9-to-13" style="stroke:#A80036;stroke-width:1.0;"/><polygon fill="#A80036" points="956.06,305.23,948.5226,298.8907,951.2562,303.8432,946.3037,306.5768,956.06,305.23" style="stroke:#A80036;stroke-width:1.0;"/><!--MD5=[26c085f55605f16ba30993d7cca82057]
link 13 to 14--><path d="M957.22,331.1 C893.93,350.6 770.35,388.67 709.34,407.46 " fill="none" id="13-to-14" style="stroke:#A80036;stroke-width:1.0;"/><polygon fill="#A80036" points="704.34,409,714.1181,410.1784,709.1192,407.5306,711.767,402.5317,704.34,409" style="stroke:#A80036;stroke-width:1.0;"/><!--MD5=[7b4ac9b38389c5694cd83f4ade4f0ec6]
link 1 to 18--><path d="M612.57,33.9 C681.09,49.13 846.65,85.92 942.22,107.16 " fill="none" id="1-to-18" style="stroke:#A80036;stroke-width:1.0;"/><polygon fill="#A80036" points="947.28,108.28,939.362,102.4229,942.3991,107.1953,937.6266,110.2324,947.28,108.28" style="stroke:#A80036;stroke-width:1.0;"/><!--MD5=[8fa2ef2cb709af82b374dd2230e09fb4]
link 18 to 19--><path d="M1028.24,143.19 C1056.35,180.23 1112.2,266.66 1081.5,335 C1070.77,358.88 1049.47,378.71 1029.85,393.05 " fill="none" id="18-to-19" style="stroke:#A80036;stroke-width:1.0;"/><polygon fill="#A80036" points="1025.43,396.2,1035.0812,394.2366,1029.5025,393.2992,1030.4399,387.7206,1025.43,396.2" style="stroke:#A80036;stroke-width:1.0;"/><!--MD5=[47c0954795522900fb64307bf07a0264]
link 19 to 20--><path d="M943.28,441.96 C858.58,483.05 675.85,571.72 607.77,604.75 " fill="none" id="19-to-20" style="stroke:#A80036;stroke-width:1.0;"/><polygon fill="#A80036" points="603.07,607.04,612.9132,606.7059,607.5675,604.8555,609.418,599.5098,603.07,607.04" style="stroke:#A80036;stroke-width:1.0;"/><!--MD5=[a4099b1a17bb287f19ce7e5de49d39b0]
@startuml
rectangle "夜ご飯" as 1
rectangle "みそ汁" as 2
usecase "だし汁を沸かす" as 3
usecase "わかめを入れる" as 4
usecase "沸騰したら火を止める" as 6
usecase "味噌を溶かす" as 7
usecase "完成" as 20
usecase "ネギを入れる" as 5
rectangle "生姜焼き" as 8
rectangle "豚肉" as 15
usecase "薄く焼き目が付くまで焼く" as 16
usecase "タレと絡めて炒める" as 17
rectangle "タレ" as 9
usecase "醤油大さじ5" as 10
usecase "混ぜる" as 14
usecase "みりん大さじ3" as 11
usecase "酒大さじ1" as 12
usecase "砂糖大さじ1" as 13
rectangle "キャベツの千切り" as 18
usecase "キャベツを切って盛り付ける" as 19

1 - -> 2
2 - -> 3
3 - -> 4
4 - -> 6
6 - -> 7
7 - -> 20
3 - -> 5
5 - -> 6
1 - -> 8
8 - -> 15
15 - -> 16
16 - -> 17
17 - -> 20
8 - -> 9
9 - -> 10
10 - -> 14
14 - -> 17
9 - -> 11
11 - -> 14
9 - -> 12
12 - -> 14
9 - -> 13
13 - -> 14
1 - -> 18
18 - -> 19
19 - -> 20

@enduml

PlantUML version 1.2022.0(Wed Jan 12 01:16:42 JST 2022)
(GPL source distribution)
Java Runtime: Java(TM) SE Runtime Environment
JVM: Java HotSpot(TM) 64-Bit Server VM
Default Encoding: MS932
Language: ja
Country: JP
--></g></svg>