<?xml version="1.0" encoding="UTF-8" standalone="no"?><svg xmlns="http://www.w3.org/2000/svg" xmlns:xlink="http://www.w3.org/1999/xlink" contentStyleType="text/css" height="506px" preserveAspectRatio="none" style="width:570px;height:506px;background:#FFFFFF;" version="1.1" viewBox="0 0 570 506" width="570px" zoomAndPan="magnify"><defs/><g><!--MD5=[13c7745981a6abb6004f7738a8ca5078]
entity 1--><g id="elem_1"><rect fill="#F1F1F1" height="37.6094" rx="2.5" ry="2.5" style="stroke:#181818;stroke-width:0.5;" width="50" x="293" y="7"/><text fill="#000000" font-family="sans-serif" font-size="14" lengthAdjust="spacing" textLength="30" x="303" y="31.5332">Main</text></g><g id="elem_2"><ellipse cx="218.9914" cy="120.4517" fill="#F1F1F1" rx="31.9914" ry="15.4517" style="stroke:#181818;stroke-width:0.5;"/><text fill="#000000" font-family="sans-serif" font-size="14" lengthAdjust="spacing" textLength="29" x="204.4914" y="124.1802">View</text></g><g id="elem_4"><ellipse cx="211.9074" cy="211.5891" fill="#F1F1F1" rx="60.9074" ry="15.5891" style="stroke:#181818;stroke-width:0.5;"/><text fill="#000000" font-family="sans-serif" font-size="14" lengthAdjust="spacing" textLength="69" x="174.4074" y="216.1057">Presenters</text></g><g id="elem_5"><ellipse cx="325.9297" cy="302.5784" fill="#F1F1F1" rx="59.4297" ry="15.5784" style="stroke:#181818;stroke-width:0.5;"/><text fill="#000000" font-family="sans-serif" font-size="14" lengthAdjust="spacing" textLength="67" x="289.4297" y="307.095">Interactors</text></g><g id="elem_8"><ellipse cx="326.0247" cy="393.4555" fill="#F1F1F1" rx="44.0247" ry="15.4555" style="stroke:#181818;stroke-width:0.5;"/><text fill="#000000" font-family="sans-serif" font-size="14" lengthAdjust="spacing" textLength="46" x="302.3075" y="397.4018">Entities</text></g><g id="elem_9"><ellipse cx="382.08" cy="484.6227" fill="#F1F1F1" rx="66.08" ry="15.6227" style="stroke:#181818;stroke-width:0.5;"/><text fill="#000000" font-family="sans-serif" font-size="14" lengthAdjust="spacing" textLength="76" x="341.08" y="489.1393">Permissions</text></g><g id="elem_7"><ellipse cx="60.9968" cy="211.5429" fill="#F1F1F1" rx="54.9968" ry="15.5429" style="stroke:#181818;stroke-width:0.5;"/><text fill="#000000" font-family="sans-serif" font-size="14" lengthAdjust="spacing" textLength="61" x="27.4968" y="216.0595">Database</text></g><g id="elem_3"><ellipse cx="431.9074" cy="120.5891" fill="#F1F1F1" rx="60.9074" ry="15.5891" style="stroke:#181818;stroke-width:0.5;"/><text fill="#000000" font-family="sans-serif" font-size="14" lengthAdjust="spacing" textLength="69" x="394.4074" y="125.1057">Controllers</text></g><g id="elem_6"><ellipse cx="507.2132" cy="211.5613" fill="#F1F1F1" rx="57.2132" ry="15.5613" style="stroke:#181818;stroke-width:0.5;"/><text fill="#000000" font-family="sans-serif" font-size="14" lengthAdjust="spacing" textLength="64" x="472.2132" y="216.0779">Authorizer</text></g><!--MD5=[0ba0d8a0fd0e641c23f69743a446dfe6]
link 1 to 2--><g id="link_1_2"><path d="M298.44,45.28 C280.52,62.02 254.22,86.59 236.86,102.81 " fill="none" id="1-to-2" style="stroke:#181818;stroke-width:1.0;"/><polygon fill="#181818" points="233.08,106.34,242.3883,103.1221,236.7348,102.9279,236.929,97.2744,233.08,106.34" style="stroke:#181818;stroke-width:1.0;"/></g><!--MD5=[d209f2622dd5d3103b9c9b4670e2d6db]
link 2 to 4--><g id="link_2_4"><path d="M217.84,136.2 C216.68,151.01 214.87,173.98 213.58,190.46 " fill="none" id="2-to-4" style="stroke:#181818;stroke-width:1.0;"/><polygon fill="#181818" points="213.16,195.78,217.8442,187.1164,213.5468,190.795,209.8682,186.4976,213.16,195.78" style="stroke:#181818;stroke-width:1.0;"/></g><!--MD5=[fb7a877824a531edc27ce1774c90edf7]
link 4 to 5--><g id="link_4_5"><path d="M229.81,226.41 C249.89,242.08 282.54,267.57 304.15,284.44 " fill="none" id="4-to-5" style="stroke:#181818;stroke-width:1.0;"/><polygon fill="#181818" points="308.31,287.69,303.703,278.9851,304.3779,284.6015,298.7615,285.2764,308.31,287.69" style="stroke:#181818;stroke-width:1.0;"/></g><!--MD5=[aa4ab59be2c9802ddfcee92066cc90c6]
link 5 to 8--><g id="link_5_8"><path d="M326,318.2 C326,333.01 326,355.98 326,372.46 " fill="none" id="5-to-8" style="stroke:#181818;stroke-width:1.0;"/><polygon fill="#181818" points="326,377.78,330,368.78,326,372.78,322,368.78,326,377.78" style="stroke:#181818;stroke-width:1.0;"/></g><!--MD5=[94d95a63a3bd8ceda79afabb6559f4c9]
link 8 to 9--><g id="link_8_9"><path d="M335,408.8 C344.49,423.89 359.51,447.76 370.01,464.44 " fill="none" id="8-to-9" style="stroke:#181818;stroke-width:1.0;"/><polygon fill="#181818" points="372.84,468.94,371.4532,459.1893,370.1862,464.7024,364.673,463.4354,372.84,468.94" style="stroke:#181818;stroke-width:1.0;"/></g><!--MD5=[45e14ffedb66253ed47de39e4f78fbf8]
link 1 to 5--><g id="link_1_5"><path d="M318.52,45.01 C319.96,94.15 323.92,230.28 325.42,281.59 " fill="none" id="1-to-5" style="stroke:#181818;stroke-width:1.0;"/><polygon fill="#181818" points="325.57,286.85,329.3113,277.7394,325.4272,281.852,321.3146,277.9679,325.57,286.85" style="stroke:#181818;stroke-width:1.0;"/></g><!--MD5=[e6222b2765c817e721b4e19585b3bd91]
link 1 to 7--><g id="link_1_7"><path d="M292.99,37.39 C262.31,50.72 209.4,75.67 169,105 C132.66,131.38 96.59,169.71 76.7,192.17 " fill="none" id="1-to-7" style="stroke:#181818;stroke-width:1.0;"/><polygon fill="#181818" points="73.18,196.18,82.1324,192.0746,76.4867,192.4296,76.1317,186.7839,73.18,196.18" style="stroke:#181818;stroke-width:1.0;"/></g><!--MD5=[1a0d6c1057c80b47479001d8cc94b868]
link 7 to 5--><g id="link_7_5"><path d="M94.83,223.86 C143.76,240.3 234.12,270.64 286.19,288.13 " fill="none" id="7-to-5" style="stroke:#181818;stroke-width:1.0;"/><polygon fill="#181818" points="291.11,289.78,283.8608,283.113,286.3723,288.1817,281.3036,290.6933,291.11,289.78" style="stroke:#181818;stroke-width:1.0;"/></g><!--MD5=[5ca979b543d038a4b12f05f8f6f2c83d]
link 7 to 8--><g id="link_7_8"><path d="M80.92,226.03 C128.92,258.63 250.83,341.44 302.39,376.46 " fill="none" id="7-to-8" style="stroke:#181818;stroke-width:1.0;"/><polygon fill="#181818" points="306.57,379.3,301.3864,370.9256,302.4386,376.4838,296.8804,377.5359,306.57,379.3" style="stroke:#181818;stroke-width:1.0;"/></g><!--MD5=[2d4b753efd65b00afdf467246674cbe5]
link 1 to 3--><g id="link_1_3"><path d="M340.25,45.05 C360.58,61.55 390.44,85.77 410.52,102.07 " fill="none" id="1-to-3" style="stroke:#181818;stroke-width:1.0;"/><polygon fill="#181818" points="414.65,105.42,410.1873,96.6402,410.7694,102.267,405.1426,102.8491,414.65,105.42" style="stroke:#181818;stroke-width:1.0;"/></g><!--MD5=[c24e363b82b23e873c94edca50a9731f]
link 3 to 5--><g id="link_3_5"><path d="M423.5,135.93 C404.51,168.18 358.6,246.14 337.26,282.38 " fill="none" id="3-to-5" style="stroke:#181818;stroke-width:1.0;"/><polygon fill="#181818" points="334.54,287.01,342.5418,281.2679,337.0682,282.6963,335.6399,277.2227,334.54,287.01" style="stroke:#181818;stroke-width:1.0;"/></g><!--MD5=[cdf617eab9002347da401fb82c9c9ca2]
link 1 to 6--><g id="link_1_6"><path d="M343.23,28.63 C386.27,32.93 472.91,48.52 511,105 C528.25,130.57 521.09,168.11 514.16,190.83 " fill="none" id="1-to-6" style="stroke:#181818;stroke-width:1.0;"/><polygon fill="#181818" points="512.61,195.72,519.1514,188.3573,514.1266,190.9556,511.5283,185.9307,512.61,195.72" style="stroke:#181818;stroke-width:1.0;"/></g><!--MD5=[a33020d25e71e759d4561ece919ccd5b]
link 6 to 5--><g id="link_6_5"><path d="M480.68,225.44 C447.84,241.59 391.76,269.16 356.91,286.3 " fill="none" id="6-to-5" style="stroke:#181818;stroke-width:1.0;"/><polygon fill="#181818" points="352.35,288.54,362.1918,288.1683,356.8392,286.3383,358.6691,280.9856,352.35,288.54" style="stroke:#181818;stroke-width:1.0;"/></g><!--MD5=[37c777aaa62e4c2e597ce83ef1b29a01]
link 6 to 9--><g id="link_6_9"><path d="M500.28,227.07 C479.25,272.65 414.71,412.58 390.93,464.15 " fill="none" id="6-to-9" style="stroke:#181818;stroke-width:1.0;"/><polygon fill="#181818" points="388.75,468.86,396.1572,462.369,390.848,464.3215,388.8956,459.0122,388.75,468.86" style="stroke:#181818;stroke-width:1.0;"/></g><!--MD5=[bba0664fe023ecc1207b620da00dbc5e]
@startuml
rectangle "Main" as 1
usecase "View" as 2
usecase "Presenters" as 4
usecase "Interactors" as 5
usecase "Entities" as 8
usecase "Permissions" as 9
usecase "Database" as 7
usecase "Controllers" as 3
usecase "Authorizer" as 6

1 - -> 2
2 - -> 4
4 - -> 5
5 - -> 8
8 - -> 9
1 - -> 5
1 - -> 7
7 - -> 5
7 - -> 8
1 - -> 3
3 - -> 5
1 - -> 6
6 - -> 5
6 - -> 9

@enduml

PlantUML version 1.2022.7(Tue Aug 23 02:01:30 JST 2022)
(GPL source distribution)
Java Runtime: Java(TM) SE Runtime Environment
JVM: Java HotSpot(TM) 64-Bit Server VM
Default Encoding: MS932
Language: ja
Country: JP
--></g></svg>